<svg width="32" height="32" viewBox="0 0 32 32" fill="none" xmlns="http://www.w3.org/2000/svg">
<g clip-path="url(#clip0_179_1826)">
<path d="M13.708 10.7085C13.708 10.7085 12.8519 4.8666 8.94111 2.18673C6.44493 0.29105 3.39543 -0.355074 0.516186 0.187425C0.216625 0.243862 0 0.506424 0 0.811299V26.2362C0.418999 26.7221 0.990561 27.2968 1.69931 27.8031C2.171 28.1401 2.80856 28.1401 3.28018 27.8031C4.38324 27.0152 5.15593 26.0603 5.53436 25.5349C5.93524 24.9784 5.75455 24.4854 5.80011 23.715C5.80011 23.715 8.3353 24.2014 10.924 25.2913C12.7569 21.2575 14.3396 15.209 13.708 10.7085Z" fill="#CC9D72"/>
<path d="M0 5.84318C0.0332499 5.78731 0.0624374 5.73693 0.0863748 5.69431C0.133187 5.611 0.247312 5.59794 0.312249 5.668C0.707874 6.09837 1.15887 6.529 1.6575 6.95149L1.61112 6.71831C1.61112 6.71831 1.39625 1.67326 5.02274 0.309383C3.54168 -0.0549911 2.00625 -0.0934285 0.516124 0.187321C0.216625 0.243821 0 0.506383 0 0.811257V5.84318Z" fill="#C19067"/>
<path d="M31.3133 0.16748C25.4647 -0.91308 20.0076 3.37472 20.0076 9.1104C20.0076 9.99465 20.0067 11.364 20.0056 12.0586L31.9961 12.0393V0.988604C31.9961 0.586167 31.7091 0.240543 31.3133 0.16748Z" fill="#CC9D72"/>
<path d="M25.2778 9.11034C25.2778 5.00566 28.0729 1.64291 31.8059 0.45823C31.6845 0.31048 31.5128 0.204293 31.3133 0.16748C25.4647 -0.91308 20.0076 3.37472 20.0076 9.1104C20.0076 9.99465 20.0067 11.364 20.0056 12.0586L25.2759 12.0501C25.2769 11.3529 25.2778 9.99102 25.2778 9.11034Z" fill="#C19067"/>
<path d="M19.6825 12.3361C19.6825 13.0555 20.4045 13.6387 21.1693 13.6387V11.0336C20.4045 11.0335 19.6825 11.6166 19.6825 12.3361Z" fill="#E8C842"/>
<path d="M19.8116 11.821C19.7293 11.979 19.6825 12.1531 19.6825 12.336C19.6825 13.0555 20.4045 13.6387 21.1693 13.6387V12.6085C20.5991 12.6085 20.0527 12.2843 19.8116 11.821Z" fill="#DBBC3B"/>
<path d="M14.8627 30.608L14.1098 27.882C13.8642 26.9925 13.2597 26.2473 12.4444 25.815C9.4351 24.219 5.80018 23.5219 5.80018 23.5219C5.75499 24.2862 5.93524 24.7853 5.53443 25.3418C5.15599 25.867 4.3833 26.822 3.2803 27.61C2.80306 27.9509 2.16074 27.9412 1.68431 27.5993C0.982497 27.0955 0.41606 26.5255 6.10352e-05 26.043V30.877C6.10352e-05 31.4971 0.502873 32 1.12306 32H13.8033C14.5295 31.9999 15.0561 31.3081 14.8627 30.608Z" fill="#F96989"/>
<path d="M1.64731 30.877V27.5716C0.962873 27.0747 0.408624 26.5168 0 26.043V30.8769C0 31.4971 0.502812 31.9999 1.123 31.9999H2.77031C2.15006 31.9999 1.64731 31.4971 1.64731 30.877Z" fill="#ED5A81"/>
<path d="M2.928 22.5876C2.86831 22.5905 2.80856 22.5929 2.74856 22.5946C2.71668 22.5956 2.68481 22.596 2.65293 22.5966C2.62881 22.597 2.60475 22.5979 2.58062 22.598C2.56618 22.5982 2.55168 22.5982 2.53725 22.5982C2.52062 22.5982 2.504 22.5983 2.48737 22.5982C2.45787 22.5982 2.42843 22.5984 2.39893 22.598C2.36893 22.5978 2.33912 22.5968 2.30918 22.5962C2.30362 22.5961 2.29812 22.596 2.2925 22.5959C1.49712 22.5791 0.727625 22.4535 -6.10352e-05 22.2341V26.043C0.418938 26.529 0.990499 27.1037 1.69925 27.61C2.17093 27.947 2.8085 27.947 3.28012 27.61C4.38324 26.822 5.15587 25.8672 5.53437 25.3418C5.70662 25.1027 5.80012 24.8162 5.80012 24.5214V21.9406C4.9128 22.3115 3.94662 22.537 2.93562 22.5872C2.93312 22.5874 2.93056 22.5874 2.928 22.5876Z" fill="#E8C842"/>
<path d="M2.37231 26.8394C1.88456 26.3821 1.6095 25.7424 1.6095 25.0738V22.5534C1.05587 22.4976 0.517249 22.3901 0 22.2341V26.0431C0.418999 26.529 0.990561 27.1037 1.69931 27.6101C2.171 27.947 2.80856 27.947 3.28018 27.6101C3.28506 27.6066 3.28968 27.603 3.29456 27.5995C2.95499 27.3557 2.64687 27.0967 2.37231 26.8394Z" fill="#DBBC3B"/>
<path d="M30.296 27.6099C29.8236 27.9473 29.1913 27.9498 28.7188 27.6127C27.6111 26.8224 26.8361 25.8632 26.4581 25.3382C26.0624 24.7883 26.2391 24.2852 26.195 23.5219C26.1946 23.5219 22.56 24.219 19.5508 25.8149C18.7355 26.2472 18.1311 26.9925 17.8853 27.882L17.1325 30.608C16.9391 31.308 17.4657 31.9998 18.192 31.9998H31.1667C31.6248 31.9998 31.9962 31.6284 31.9962 31.1703V26.0418C31.577 26.528 31.0052 27.1032 30.296 27.6099Z" fill="#57ADDD"/>
<path d="M18.7312 30.608L19.484 27.045C19.684 26.3209 20.122 25.6924 20.7177 25.2505C20.3244 25.4244 19.9325 25.6124 19.5507 25.8149C18.7355 26.2472 18.131 26.9925 17.8853 27.882L17.1324 30.608C16.939 31.308 17.4657 31.9998 18.1919 31.9998H19.7907C19.0645 31.9999 18.5379 31.3082 18.7312 30.608Z" fill="#42A2CC"/>
<path d="M31.9961 22.3882C30.1184 22.9507 28.0369 22.8609 26.1949 22.0969V24.5212C26.1949 24.816 26.2885 25.1027 26.4608 25.342C26.8393 25.8673 27.6119 26.8222 28.7149 27.61C29.1866 27.947 29.8241 27.947 30.2958 27.61C31.0051 27.1033 31.5769 26.5281 31.9961 26.0419V22.3882H31.9961Z" fill="#E8C842"/>
<path d="M28.0815 25.3419C27.9091 25.1027 27.8156 24.816 27.8156 24.5211V22.5857C27.2629 22.477 26.7192 22.3144 26.1949 22.0969V24.5212C26.1949 24.816 26.2885 25.1027 26.4608 25.342C26.8393 25.8673 27.6119 26.8222 28.7149 27.61C29.1866 27.947 29.8241 27.947 30.2958 27.61C30.3025 27.6052 30.3088 27.6002 30.3156 27.5954C29.2235 26.8102 28.4577 25.864 28.0815 25.3419Z" fill="#DBBC3B"/>
<path d="M0.312312 5.47489C0.247375 5.40483 0.13325 5.41783 0.0864373 5.5012C0.0624374 5.54376 0.0332499 5.5942 0 5.65008V22.5569C0.760186 22.786 1.56593 22.9128 2.39906 22.92C2.42937 22.9204 2.45962 22.9202 2.48987 22.9203C2.52018 22.9202 2.55037 22.9205 2.58075 22.92C7.06299 22.8809 10.7827 19.3856 10.7827 14.9656C10.7827 14.8042 10.7825 13.1562 10.7822 11.7356C10.7822 11.4502 10.5864 11.2031 10.3094 11.1346C6.15749 10.1075 2.43812 7.78726 0.312312 5.47489Z" fill="#F4D44E"/>
<path d="M1.61106 6.71839C1.13112 6.3087 0.695374 5.8917 0.312249 5.47489C0.247312 5.40483 0.133187 5.41783 0.0863748 5.5012C0.0624374 5.54376 0.0332499 5.5942 0 5.65008V22.5569C0.517687 22.7129 1.05687 22.8202 1.61106 22.8759V6.71839Z" fill="#E8C842"/>
<path d="M31.9961 7.60084C30.4287 7.48765 29.47 7.03678 29.47 7.03678L29.8197 7.51896C30.0847 7.8844 29.9964 8.53659 29.166 8.58821C29.1309 8.58259 29.1053 8.59252 28.853 8.57765C28.1428 8.53552 26.2683 8.30177 24.2622 7.04778L24.262 7.04859C23.1653 6.38153 22.6292 6.75053 22.3812 7.12109C22.0989 7.54315 22.2144 7.95196 22.1875 8.42459C22.1875 9.31033 21.8775 10.1681 21.3112 10.8492L21.1622 11.0284C21.1622 11.0289 21.1622 11.0293 21.1622 11.0298C21.1612 11.0856 21.1605 11.1425 21.1599 11.2001C21.1598 11.2071 21.1597 11.214 21.1597 11.2211C21.1591 11.2816 21.1588 11.3431 21.1588 11.406C21.1588 11.4077 21.1588 11.4093 21.1588 11.4109C21.1576 17.0411 21.158 14.2813 21.158 15.0738C21.158 20.5928 26.774 24.2742 31.9961 22.7103V7.60084Z" fill="#F4D44E"/>
<path d="M24.3607 15.0738C24.3607 14.9523 24.3607 14.9145 24.3607 14.9169C24.3607 15.0283 24.3606 15.0694 24.3606 15.0734C24.3606 15.0649 24.3606 14.9215 24.3607 14.9169C24.3608 14.5963 24.361 13.6927 24.3615 11.4109C24.3615 11.4093 24.3615 11.4077 24.3615 11.406C24.3615 11.3431 24.3618 11.2817 24.3623 11.2211C24.3624 11.2141 24.3625 11.2071 24.3625 11.2001C24.3631 11.1425 24.3638 11.0856 24.3648 11.0298C24.3648 11.0293 24.3648 11.0289 24.3648 11.0284L24.5139 10.8492C25.0802 10.1681 25.3902 9.31033 25.3902 8.42459C25.4055 8.15496 25.3748 7.90615 25.3977 7.66371C25.0289 7.49215 24.648 7.28896 24.2621 7.04778L24.2619 7.04859C23.1653 6.38153 22.6291 6.75053 22.3811 7.12109C22.0988 7.54315 22.2144 7.95196 22.1875 8.42459C22.1875 9.31033 21.8774 10.1681 21.3111 10.8492L21.1621 11.0284C21.1621 11.0289 21.1621 11.0293 21.1621 11.0298C21.1611 11.0856 21.1604 11.1425 21.1598 11.2001C21.1597 11.2071 21.1596 11.214 21.1596 11.2211C21.159 11.2816 21.1587 11.3431 21.1587 11.406C21.1587 11.4077 21.1587 11.4093 21.1587 11.4109C21.1582 13.6935 21.158 14.5969 21.158 14.9173C21.158 14.9223 21.158 14.9636 21.158 15.0738C21.158 20.2877 26.1703 23.8607 31.1276 22.9212C27.4231 22.2219 24.3607 19.1491 24.3607 15.0738Z" fill="#E8C842"/>
<path d="M7.68311 12.3395C6.92142 11.7021 5.80867 11.7006 5.04511 12.3395C4.84061 12.5106 4.53605 12.4836 4.36493 12.2791C4.1938 12.0746 4.22087 11.77 4.42537 11.5988C5.54711 10.6601 7.18273 10.6614 8.30292 11.5988C8.50742 11.77 8.53448 12.0745 8.36336 12.2791C8.19167 12.4842 7.88705 12.5101 7.68311 12.3395Z" fill="#656566"/>
<path d="M26.9353 11.8414C26.5633 11.5301 26.0911 11.3586 25.6056 11.3586C25.1201 11.3586 24.6478 11.5301 24.2759 11.8414C24.0714 12.0124 23.7668 11.9854 23.5957 11.7809C23.4246 11.5764 23.4516 11.2719 23.6561 11.1008C24.2015 10.6443 24.8939 10.3929 25.6056 10.3929C26.3173 10.3929 27.0097 10.6443 27.5551 11.1008C27.7596 11.2719 27.7867 11.5764 27.6155 11.7809C27.4441 11.9858 27.1396 12.0123 26.9353 11.8414Z" fill="#656566"/>
<path d="M21.316 1.02337C19.8033 -0.426382 17.3625 -0.307007 15.9432 1.23443L15.726 1.4703C15.6254 1.57955 15.4528 1.57955 15.3522 1.4703L15.1349 1.23443C13.7157 -0.306945 11.2748 -0.426382 9.76212 1.02343C8.2985 2.42611 8.2205 4.74861 9.59993 6.24685C9.82474 6.49104 15.1204 12.2423 14.8965 11.9992C15.2425 12.375 15.8355 12.375 16.1815 11.9992C16.4285 11.731 21.2329 6.51317 21.4782 6.24685C22.8577 4.74855 22.7797 2.42611 21.316 1.02337Z" fill="#F96989"/>
<path d="M12.819 5.53395C11.4396 4.03571 11.5176 1.71327 12.9812 0.310526C13.0559 0.239026 13.1334 0.172401 13.2122 0.108527C12.0171 -0.176223 10.7081 0.116651 9.76212 1.0234C8.2985 2.42608 8.2205 4.74858 9.59993 6.24683C9.81574 6.48114 14.7018 11.7877 14.8965 11.9992C15.2425 12.3749 15.8356 12.3749 16.1815 11.9992C16.2589 11.9151 16.7844 11.3445 17.4768 10.5925C16.1009 9.0982 12.9903 5.71989 12.819 5.53395Z" fill="#ED5A81"/>
<path d="M11.2656 31.9999V29.1521C11.2656 28.8854 11.0494 28.6692 10.7827 28.6692C10.516 28.6692 10.2998 28.8854 10.2998 29.1521V31.9999H11.2656Z" fill="#ED5A81"/>
<path d="M21.6955 31.9999V29.1521C21.6955 28.8854 21.4793 28.6692 21.2126 28.6692C20.946 28.6692 20.7298 28.8854 20.7298 29.1521V31.9999H21.6955Z" fill="#399DC9"/>
<path d="M28.5384 14.609V14.744C28.5384 15.2682 28.9412 15.7191 29.4648 15.7438C30.0237 15.7701 30.4852 15.3247 30.4852 14.7715V14.5957C30.4852 14.385 30.3145 14.2142 30.1038 14.2142H28.9333C28.7152 14.2142 28.5384 14.391 28.5384 14.609Z" fill="#E8C842"/>
<path d="M29.5118 14.7442V14.6092C29.5118 14.3911 29.6886 14.2144 29.9066 14.2144H28.9333C28.7152 14.2144 28.5385 14.3912 28.5385 14.6092V14.7442C28.5385 15.2683 28.9413 15.7193 29.4648 15.7439C29.6611 15.7531 29.8446 15.7033 30.0011 15.612C29.7066 15.4369 29.5118 15.1084 29.5118 14.7442Z" fill="#DBBC3B"/>
<path d="M1.51624 15.3325V15.4676C1.51624 15.9917 1.91905 16.4426 2.44261 16.4673C3.00155 16.4936 3.46304 16.0482 3.46304 15.4951V15.3192C3.46304 15.1085 3.29229 14.9377 3.08161 14.9377H1.91111C1.69305 14.9377 1.51624 15.1144 1.51624 15.3325Z" fill="#E8C842"/>
<path d="M2.48961 15.4676V15.3326C2.48961 15.1145 2.66642 14.9377 2.88442 14.9377H1.91111C1.69305 14.9377 1.5163 15.1146 1.5163 15.3326V15.4676C1.5163 15.9917 1.91911 16.4427 2.44267 16.4673C2.63892 16.4765 2.82248 16.4267 2.97898 16.3354C2.68442 16.1604 2.48961 15.8319 2.48961 15.4676Z" fill="#DBBC3B"/>
<path d="M25.6055 14.4037C26.1979 14.4037 26.6781 13.9234 26.6781 13.331C26.6781 12.7386 26.1979 12.2583 25.6055 12.2583C25.013 12.2583 24.5328 12.7386 24.5328 13.331C24.5328 13.9234 25.013 14.4037 25.6055 14.4037Z" fill="#656566"/>
<path d="M25.6056 13.3307C25.4072 12.9869 25.4214 12.5795 25.6061 12.2587C25.4236 12.2584 25.2387 12.3037 25.0692 12.4015C24.5561 12.6978 24.3803 13.354 24.6765 13.8672C24.9727 14.3803 25.6289 14.5561 26.1421 14.2599C26.3116 14.162 26.4432 14.0245 26.5343 13.8664C26.164 13.8657 25.8041 13.6744 25.6056 13.3307Z" fill="#545456"/>
<path d="M6.36425 15.1426C6.95668 15.1426 7.43694 14.6623 7.43694 14.0699C7.43694 13.4775 6.95668 12.9972 6.36425 12.9972C5.77182 12.9972 5.29156 13.4775 5.29156 14.0699C5.29156 14.6623 5.77182 15.1426 6.36425 15.1426Z" fill="#656566"/>
<path d="M6.36411 14.0698C6.16567 13.7261 6.17992 13.3187 6.36461 12.9978C6.18205 12.9976 5.99717 13.0429 5.82767 13.1407C5.31455 13.4369 5.13873 14.0931 5.43498 14.6063C5.73123 15.1194 6.38742 15.2952 6.90061 14.999C7.07004 14.9012 7.20173 14.7637 7.29279 14.6055C6.92254 14.6049 6.56261 14.4136 6.36411 14.0698Z" fill="#545456"/>
<path d="M0.0286915 18.4062C1.049 20.3697 3.83637 20.4209 4.94274 18.5381C5.07281 18.3167 4.91393 18.0377 4.65718 18.0377H0.252691C0.0635664 18.0378 -0.0584959 18.2383 0.0286915 18.4062Z" fill="#656566"/>
<path d="M2.0865 18.4062C1.99925 18.2383 2.12137 18.0378 2.3105 18.0378H0.252691C0.0635664 18.0378 -0.0584959 18.2383 0.0286915 18.4062C0.73644 19.7682 2.29425 20.2092 3.55168 19.7236C2.95356 19.493 2.4235 19.0545 2.0865 18.4062Z" fill="#545456"/>
<path d="M27.0395 18.4041C28.0598 20.3676 30.8472 20.4188 31.9535 18.536C32.0836 18.3146 31.9247 18.0356 31.668 18.0356H27.2635C27.0744 18.0357 26.9523 18.2363 27.0395 18.4041Z" fill="#656566"/>
<path d="M29.0973 18.4041C29.0101 18.2363 29.1322 18.0358 29.3213 18.0358H27.2635C27.0744 18.0358 26.9523 18.2363 27.0395 18.4041C27.7472 19.7661 29.3051 20.2071 30.5625 19.7215C29.9644 19.491 29.4342 19.0525 29.0973 18.4041Z" fill="#545456"/>
</g>
<defs>
<clipPath id="clip0_179_1826">
<rect width="32" height="32" fill="white"/>
</clipPath>
</defs>
</svg>
