<svg width="32" height="32" viewBox="0 0 32 32" fill="none" xmlns="http://www.w3.org/2000/svg">
<path d="M26.5832 24.8732L27.6759 25.1171C29.5633 25.5385 30.7517 27.4101 30.3304 29.2975L30.315 29.3668C30.254 29.64 29.983 29.812 29.7099 29.751L28.6172 29.5071C26.7297 29.0857 25.5413 27.2141 25.9626 25.3267L25.978 25.2575C26.039 24.9843 26.31 24.8122 26.5832 24.8732Z" fill="#75C6A6"/>
<path d="M21.6297 21.5268L22.6779 21.1333C24.4884 20.4536 26.5071 21.3703 27.1868 23.1808L27.2117 23.2472C27.3101 23.5092 27.1774 23.8014 26.9154 23.8999L25.8672 24.2934C24.0567 24.973 22.038 24.0564 21.3583 22.2459L21.3334 22.1795C21.235 21.9174 21.3677 21.6252 21.6297 21.5268Z" fill="#75C6A6"/>
<path d="M1.55196 3.47183L2.58933 3.05071C4.38115 2.32327 6.42346 3.18615 7.1509 4.97796L7.17758 5.04365C7.2829 5.30302 7.15796 5.59865 6.89858 5.70396L5.86121 6.12508C4.0694 6.85252 2.02708 5.98965 1.29965 4.19783L1.27296 4.13215C1.16765 3.87277 1.29258 3.57715 1.55196 3.47183Z" fill="#75C6A6"/>
<path d="M5.23568 24.8732L4.14299 25.1171C2.25555 25.5385 1.06712 27.4101 1.48843 29.2975L1.50387 29.3668C1.56487 29.64 1.8358 29.812 2.10899 29.751L3.20168 29.5071C5.08912 29.0857 6.27755 27.2141 5.85624 25.3267L5.8408 25.2575C5.7798 24.9843 5.50887 24.8122 5.23568 24.8732Z" fill="#75C6A6"/>
<path d="M9.26959 18.8714L8.38778 18.1815C6.86459 16.99 4.6639 17.2588 3.47234 18.782L3.42865 18.8379C3.25615 19.0584 3.29509 19.3769 3.51559 19.5494L4.3974 20.2392C5.92059 21.4308 8.12128 21.162 9.31284 19.6388L9.35653 19.5829C9.52903 19.3624 9.49009 19.0439 9.26959 18.8714Z" fill="#75C6A6"/>
<path d="M25.5303 5.80647L25.7669 4.71216C26.1756 2.82197 28.0391 1.62091 29.9293 2.0296L29.9986 2.0446C30.2722 2.10372 30.4461 2.37353 30.3869 2.6471L30.1504 3.74141C29.7417 5.6316 27.8781 6.83266 25.9879 6.42397L25.9186 6.40897C25.645 6.34978 25.4711 6.08004 25.5303 5.80647Z" fill="#75C6A6"/>
<path d="M15.9122 31.531C7.40412 31.4839 0.516115 24.5958 0.46899 16.0878C0.421303 7.47557 7.47555 0.421322 16.0878 0.469009C24.5959 0.516134 31.4839 7.4042 31.531 15.9123C31.5787 24.5244 24.5244 31.5787 15.9122 31.531ZM5.8768 9.92714C4.71518 11.7352 4.04137 13.8866 4.04137 16.1953C4.04137 21.9494 8.22693 26.7255 13.7195 27.6463C13.9911 27.6918 14.2394 27.4844 14.2394 27.2089V17.7108C14.2394 17.5927 14.1925 17.4794 14.109 17.396L6.56643 9.85338C6.36562 9.65263 6.0303 9.68826 5.8768 9.92714ZM14.3369 4.79338C14.3369 4.5197 14.0916 4.30845 13.8216 4.35357C11.8632 4.68107 10.071 5.49857 8.57505 6.67595C8.36655 6.84007 8.35074 7.15101 8.53837 7.33863L13.8413 12.6416C14.0242 12.8244 14.3369 12.6949 14.3369 12.4363V4.79338ZM23.4249 6.67595C21.9291 5.49857 20.1367 4.68107 18.1784 4.35357C17.9084 4.30845 17.6631 4.5197 17.6631 4.79338V12.4363C17.6631 12.6949 17.9758 12.8244 18.1587 12.6415L23.4616 7.33857C23.6493 7.15101 23.6334 6.84007 23.4249 6.67595ZM26.1232 9.92714C25.9697 9.68826 25.6343 9.65263 25.4336 9.85338L17.891 17.3959C17.8075 17.4794 17.7606 17.5926 17.7606 17.7107V27.2089C17.7606 27.4844 18.0089 27.6918 18.2805 27.6463C23.7731 26.7254 27.9586 21.9494 27.9586 16.1953C27.9586 13.8866 27.2848 11.7352 26.1232 9.92714Z" fill="#EAA5CC"/>
<path d="M15.9122 31.531C15.6243 31.5294 15.3383 31.5193 15.0543 31.5023C23.1977 31.0153 29.7018 24.1828 29.6561 15.9123C29.6106 7.6922 23.1792 0.984947 15.0708 0.497822C15.4073 0.477697 15.7461 0.467197 16.0878 0.469072C24.5959 0.516134 31.4839 7.40426 31.531 15.9123C31.5787 24.5244 24.5244 31.5787 15.9122 31.531Z" fill="#E589BC"/>
<path d="M28.5877 25.4585C29.9262 26.1863 30.6789 27.7365 30.3304 29.2975L30.315 29.3668C30.254 29.64 29.9831 29.812 29.7099 29.751L28.6172 29.5071C27.6497 29.2911 26.8658 28.694 26.3883 27.909" stroke="black" stroke-miterlimit="10" stroke-linecap="round" stroke-linejoin="round"/>
<path d="M24.2735 24.4985C22.9962 24.3644 21.8404 23.5299 21.3583 22.2457L21.3334 22.1793C21.235 21.9173 21.3677 21.6251 21.6297 21.5267L22.6779 21.1332C23.9349 20.6612 25.2924 20.9589 26.2322 21.7909" stroke="black" stroke-miterlimit="10" stroke-linecap="round" stroke-linejoin="round"/>
<path d="M3.64752 6.26575C2.62071 5.993 1.73002 5.258 1.29958 4.19781L1.2729 4.13212C1.16758 3.87275 1.29252 3.57712 1.5519 3.47181L2.58927 3.05068C3.88115 2.52625 5.30315 2.82837 6.26877 3.70937" stroke="black" stroke-miterlimit="10" stroke-linecap="round" stroke-linejoin="round"/>
<path d="M3.36282 25.3906C1.94244 26.0862 1.12869 27.6861 1.48844 29.2976L1.50388 29.3669C1.56488 29.6401 1.83582 29.8121 2.10901 29.7511L3.20169 29.5072C4.17544 29.2898 4.96319 28.6864 5.43976 27.894" stroke="black" stroke-miterlimit="10" stroke-linecap="round" stroke-linejoin="round"/>
<path d="M4.89112 20.563C6.36606 21.3616 8.24487 21.004 9.31287 19.6388L9.35656 19.5829C9.52906 19.3624 9.49012 19.0438 9.26962 18.8714L8.38781 18.1815C7.20425 17.2557 5.61162 17.2115 4.40118 17.9525" stroke="black" stroke-miterlimit="10" stroke-linecap="round" stroke-linejoin="round"/>
<path d="M26.011 3.98089C26.6833 2.52476 28.2964 1.67651 29.9293 2.02951L29.9986 2.04451C30.2722 2.10364 30.446 2.37345 30.3869 2.64701L30.1504 3.74132C29.9137 4.83607 29.189 5.69964 28.2537 6.1532" stroke="black" stroke-miterlimit="10" stroke-linecap="round" stroke-linejoin="round"/>
<path d="M0.818109 12.7271C2.3373 5.71463 8.62805 0.427696 16.0877 0.468946C24.5958 0.516071 31.4839 7.40413 31.5309 15.9122C31.5567 20.5801 29.4963 24.7902 26.2322 27.6599M26.2323 27.66C23.4742 30.085 19.8565 31.5529 15.9122 31.531C7.40411 31.4839 0.516109 24.5958 0.468984 16.0878C0.467297 15.7782 0.474734 15.4706 0.491109 15.1653M27.9586 16.1953C27.9586 13.8866 27.2848 11.7352 26.1232 9.92714C25.9697 9.68826 25.6343 9.65263 25.4335 9.85338L17.891 17.3959C17.8075 17.4794 17.7606 17.5926 17.7606 17.7107V27.2089C17.7606 27.4844 18.0089 27.6918 18.2805 27.6463C22.9569 26.8623 26.6858 23.2838 27.6908 18.6863M5.8768 9.92714C4.71517 11.7352 4.04136 13.8866 4.04136 16.1953C4.04136 21.9494 8.22692 26.7255 13.7195 27.6463C13.9911 27.6918 14.2394 27.2403 14.2394 26.9649V17.7107C14.2394 17.5926 14.1925 17.4794 14.109 17.3959L6.56642 9.85338C6.36561 9.65263 6.0303 9.68826 5.8768 9.92714ZM14.3369 4.79338C14.3369 4.5197 14.0915 4.30845 13.8216 4.35357C11.8632 4.68107 10.071 5.49857 8.57505 6.67595C8.36655 6.84007 8.35073 7.15101 8.53836 7.33863L13.8413 12.6416C14.0242 12.8244 14.3369 12.6949 14.3369 12.4363V4.79338ZM23.4249 6.67595C21.929 5.49857 20.1367 4.68107 18.1784 4.35357C17.9084 4.30845 17.6631 4.5197 17.6631 4.79338V12.4363C17.6631 12.6949 17.9758 12.8244 18.1587 12.6415L23.4616 7.33857C23.6493 7.15101 23.6334 6.84007 23.4249 6.67595Z" stroke="black" stroke-miterlimit="10" stroke-linecap="round"/>
</svg>
