<svg width="30" height="32" viewBox="0 0 30 32" fill="none" xmlns="http://www.w3.org/2000/svg">
<path d="M15.7895 5.8814V12.5839C15.7895 15.2914 13.9157 17.5814 11.402 18.2239C10.9432 18.3402 10.4645 18.4027 9.97073 18.4027C9.47698 18.4027 8.99823 18.3402 8.53948 18.2239C6.02573 17.5814 4.15198 15.2914 4.15198 12.5839V5.8814C4.15198 5.4489 4.50573 5.09515 4.93823 5.09515H15.0032C15.4357 5.09515 15.7895 5.4489 15.7895 5.8814Z" fill="#FFBB98"/>
<path d="M15.7895 5.9364V12.5839C15.7895 15.2914 13.9157 17.5814 11.402 18.2239C12.917 17.0977 13.9145 15.2214 13.9145 13.1077V5.9364C13.9145 5.4739 13.5607 5.09515 13.1282 5.09515H15.0032C15.4357 5.09515 15.7895 5.4739 15.7895 5.9364Z" fill="#FFAA80"/>
<path d="M8.53948 18.2239C6.02573 17.5814 4.15198 15.2914 4.15198 12.5839V5.9364C4.15198 5.4739 4.50573 5.09515 4.93823 5.09515H6.81323C6.38073 5.09515 6.02698 5.4739 6.02698 5.9364V13.1077C6.02698 15.2214 7.02448 17.0977 8.53948 18.2239Z" fill="#FFCAA6"/>
<path d="M19.4407 29.7539V29.8752C19.4407 30.5652 18.8807 31.1252 18.1907 31.1252H1.75073C1.06073 31.1252 0.500732 30.5652 0.500732 29.8752V29.7539C0.500732 26.7489 1.89948 24.0702 4.08198 22.3364C4.22948 22.2189 4.37948 22.1064 4.53323 21.9989C6.07198 20.9177 7.94573 20.2827 9.96948 20.2827H9.97198C10.2882 20.2827 10.6007 20.2977 10.9082 20.3289C12.5732 20.4914 14.1095 21.0864 15.4082 21.9989C15.562 22.1064 15.7132 22.2189 15.8595 22.3364C16.142 22.5602 16.412 22.8014 16.667 23.0564C18.3807 24.7702 19.4407 27.1377 19.4407 29.7539Z" fill="#FFEFEE"/>
<path d="M19.4407 29.7539V29.8752C19.4407 30.5652 18.8807 31.1252 18.1907 31.1252H3.62573C2.93573 31.1252 2.37573 30.5652 2.37573 29.8752V29.7539C2.37573 26.7489 3.77448 24.0702 5.95698 22.3364C6.10448 22.2189 6.25448 22.1064 6.40823 21.9989C7.70698 21.0864 9.24323 20.4914 10.9082 20.3289C12.5732 20.4914 14.1095 21.0864 15.4082 21.9989C15.562 22.1064 15.7132 22.2189 15.8595 22.3364C16.142 22.5602 16.412 22.8014 16.667 23.0564C18.3807 24.7702 19.4407 27.1377 19.4407 29.7539Z" fill="#FFE2E2"/>
<path d="M16.667 23.0564C16.412 22.8014 16.142 22.5602 15.8595 22.3364C15.7132 22.2189 15.562 22.1064 15.4082 21.9989C14.1095 21.0864 12.5732 20.4914 10.9082 20.3289C10.5907 20.3602 10.2782 20.4064 9.9707 20.4689C11.2757 20.7302 12.482 21.2602 13.5332 21.9989C13.687 22.1064 13.8382 22.2189 13.9845 22.3364C14.267 22.5602 14.537 22.8014 14.792 23.0564C16.5057 24.7702 17.5657 27.1377 17.5657 29.7539V29.8752C17.5657 30.5652 17.0057 31.1252 16.3157 31.1252H18.1907C18.8807 31.1252 19.4407 30.5652 19.4407 29.8752V29.7539C19.4407 27.1377 18.3807 24.7702 16.667 23.0564Z" fill="#FFCFCF"/>
<path d="M17.2632 6.50076V9.87451H2.67822V6.50076C2.67822 3.18701 5.36447 0.499512 8.67947 0.499512H11.262C14.577 0.499512 17.2632 3.18701 17.2632 6.50076Z" fill="#F973A3"/>
<path d="M17.2632 6.50076V9.87451H4.55322V6.50076C4.55322 3.18701 7.23947 0.499512 10.5545 0.499512H11.262C14.577 0.499512 17.2632 3.18701 17.2632 6.50076Z" fill="#FF4A73"/>
<path d="M9.9707 0.528265C13.012 0.820765 15.3882 3.38452 15.3882 6.50077V9.87451H17.2632V6.50077C17.2632 3.22302 14.616 0.07564 9.9707 0.528265Z" fill="#EA2A6A"/>
<path d="M11.8461 19.7074V18.0904H8.09611V19.7096C8.09611 20.0871 7.88123 20.4318 7.54236 20.5979C8.05961 21.8628 8.76573 23.1736 9.96986 23.8116H9.97111C11.1297 23.2009 11.9296 21.8199 12.4149 20.6029L12.4092 20.6001C12.0652 20.4359 11.8461 20.0886 11.8461 19.7074Z" fill="#FFBB98"/>
<path d="M9.96986 23.8116L5.54486 25.2316V21.3804C6.17236 21.0466 6.84111 20.7829 7.54236 20.5979C8.04236 21.8204 8.74611 23.1641 9.96986 23.8116Z" fill="#FF4A73"/>
<path d="M14.3974 21.3792V25.2317L9.97363 23.8117H9.97113C11.1099 23.2104 11.9036 21.8767 12.4149 20.6029C13.1099 20.7867 13.7736 21.0479 14.3974 21.3792Z" fill="#FF4A73"/>
<path d="M17.2628 9.8745H2.67859L5.19034 7.12338C5.42721 6.864 5.76221 6.71613 6.11346 6.71613H13.7698C14.1161 6.71613 14.447 6.85975 14.6833 7.11288L17.2628 9.8745Z" fill="#EA2A6A"/>
<path d="M14.3977 21.6041H28.713V31.1241H14.3977V21.6041Z" fill="#F9D335"/>
<path d="M14.398 21.6042H15.8461V31.124H14.398V21.6042Z" fill="#F9E27D"/>
<path d="M27.2648 21.6042H28.713V31.124H27.2648V21.6042Z" fill="#F2C300"/>
<path d="M28.713 21.6041L21.5561 26.3645L14.3977 21.6041H28.713Z" fill="#F2C300"/>
<path d="M9.97074 16.3631C10.9307 16.3631 11.7117 15.5821 11.7117 14.6221C11.7117 14.346 11.4879 14.1221 11.2117 14.1221C10.9356 14.1221 10.7117 14.346 10.7117 14.6221C10.7117 15.0308 10.3794 15.3631 9.97074 15.3631C9.56211 15.3631 9.22974 15.0308 9.22974 14.6221C9.22974 14.346 9.00586 14.1221 8.72974 14.1221C8.45361 14.1221 8.22974 14.346 8.22974 14.6221C8.22974 15.5821 9.01074 16.3631 9.97074 16.3631Z" fill="#5F266D"/>
<path d="M7.20439 12.7505C7.55899 12.6667 7.7785 12.3113 7.69468 11.9567C7.61086 11.6021 7.25545 11.3826 6.90085 11.4664C6.54625 11.5502 6.32674 11.9056 6.41056 12.2602C6.49438 12.6148 6.84979 12.8343 7.20439 12.7505Z" fill="#5F266D"/>
<path d="M13.3541 12.5807C13.6118 12.323 13.6118 11.9053 13.3541 11.6476C13.0965 11.3899 12.6787 11.3899 12.4211 11.6476C12.1634 11.9053 12.1634 12.323 12.4211 12.5807C12.6787 12.8383 13.0965 12.8383 13.3541 12.5807Z" fill="#5F266D"/>
<path d="M28.7125 21.1038H14.9363C14.103 20.6303 13.276 20.3018 12.5553 20.108C12.4251 20.0171 12.3468 19.8703 12.3468 19.708V18.4349C14.7194 17.4685 16.2899 15.1618 16.2899 12.5838V10.375H17.2624C17.5801 10.375 17.7636 10.0961 17.7636 9.875V6.50125C17.7636 2.91625 14.8461 0 11.2624 0H8.68C5.095 0 2.17875 2.91625 2.17875 6.50125V9.875C2.17875 10.1477 2.4005 10.375 2.67875 10.375H3.65238V12.5836C3.65238 15.1635 5.22525 17.4718 7.59675 18.4355V19.7091C7.59675 19.8779 7.50725 20.035 7.366 20.1238C7.36438 20.1243 7.36275 20.1246 7.36125 20.125C2.95625 21.335 0 25.2437 0 29.875C0 30.84 0.785 31.625 1.75 31.625H28.7138C28.9758 31.625 29.2138 31.4037 29.2138 31.125V21.6038C29.2138 21.3298 28.991 21.1038 28.7125 21.1038ZM24.9641 24.6981L24.965 24.6975L28.2138 22.5363V29.4956L24.9641 24.6981ZM27.0588 22.1038L21.5563 25.7638C19.2901 24.2566 21.694 25.856 16.0525 22.1038H27.0588ZM14.8975 29.7087V25.2313V22.5363C18.3865 24.8568 14.6625 22.3808 18.1525 24.7013C17.6299 25.5035 18.1949 24.6345 14.8975 29.7087ZM8.87125 23.6388L6.045 24.5462V21.6938C6.47388 21.4818 6.95513 21.2935 7.255 21.2013C7.5305 21.8913 8.15838 22.9645 8.87125 23.6388ZM11.7988 20.7749C11.7363 20.8999 11.0964 22.4799 9.96988 23.2313C9.13863 22.7055 8.55388 21.6693 8.15663 20.7649C8.4325 20.4889 8.59675 20.1089 8.59675 19.7091V18.7479C9.5205 18.9536 10.4213 18.9537 11.3468 18.7475V19.7079C11.3468 20.1138 11.5156 20.4981 11.7988 20.7749ZM12.7024 21.2074L12.7025 21.2075C13.0095 21.2989 13.5353 21.5051 13.8975 21.6863V24.5462L11.065 23.6362C11.616 23.0852 12.1628 22.4163 12.7024 21.2074ZM3.8125 9.375L5.56 7.46C5.70125 7.305 5.90375 7.21625 6.11375 7.21625H13.77C13.9763 7.21625 14.1763 7.3025 14.3175 7.45375L16.1113 9.375H3.8125ZM3.17875 6.50125C3.17875 3.4675 5.64625 1 8.68 1H11.2625C14.295 1 16.7638 3.4675 16.7638 6.50125V8.6075L15.0488 6.77125C14.7188 6.41875 14.2525 6.21625 13.77 6.21625H6.11375C5.6225 6.21625 5.1525 6.42375 4.82125 6.78625L3.17875 8.585V6.50125ZM4.6525 12.5836V10.375H15.29V12.5836C15.29 14.8551 13.8409 16.8779 11.6795 17.6185C8.35775 18.794 4.6525 16.2921 4.6525 12.5836ZM1 29.875C1 26.3412 2.78625 23.7537 5.045 22.2663V25.2313C5.045 25.5793 5.38438 25.8092 5.6975 25.7075L9.9725 24.3363L13.8975 25.5963V30.625H1.75C1.3375 30.625 1 30.2887 1 29.875ZM15.495 30.625C17.902 26.9219 18.985 25.255 18.985 25.255L21.2788 26.7812C21.4471 26.8919 21.661 26.8939 21.8325 26.7812L24.1313 25.2525L24.1316 25.2523L27.771 30.625C26.1593 30.625 16.4709 30.625 15.495 30.625Z" fill="#5F266D"/>
<path d="M25.3287 28.7037H23.7037C23.4275 28.7037 23.2037 28.9275 23.2037 29.2037C23.2037 29.48 23.4275 29.7037 23.7037 29.7037H25.3287C25.605 29.7037 25.8287 29.48 25.8287 29.2037C25.8287 28.9275 25.605 28.7037 25.3287 28.7037Z" fill="#5F266D"/>
<path d="M21.8287 28.7037H21.555C21.2787 28.7037 21.055 28.9275 21.055 29.2037C21.055 29.48 21.2787 29.7037 21.555 29.7037H21.8287C22.105 29.7037 22.3287 29.48 22.3287 29.2037C22.3287 28.9275 22.105 28.7037 21.8287 28.7037Z" fill="#5F266D"/>
</svg>
