<svg width="32" height="32" viewBox="0 0 32 32" fill="none" xmlns="http://www.w3.org/2000/svg">
<path d="M4.9125 21.0324C4.9125 21.0324 4.455 21.8774 4.42 22.4049C4.385 22.9324 4.7375 27.2274 5.51 28.1774C6.2825 29.1274 8.6425 31.6274 15.61 31.6974C22.5775 31.7674 26.1325 28.5999 26.52 27.9674C26.9075 27.3349 27.4 24.3774 27.435 22.0549C27.47 19.7324 15.0825 21.3499 15.0825 21.3499L4.9125 21.0324Z" fill="#FBB75A"/>
<path d="M15.47 26.6625C21.665 26.8375 27.4 23.0375 27.4 23.0375L27.225 24.9375C27.225 24.9375 22.51 28.5625 15.575 28.3875C8.64 28.2125 4.63 24.9375 4.63 24.9375L4.455 23.2825C4.455 23.2825 10.0525 26.5075 15.47 26.6625Z" fill="#F2A05B"/>
<path d="M16.245 11.88C13.605 11.8925 5.6525 12.5125 4.8425 15.8925C4.0325 19.2725 4.1375 22.44 4.28 22.72C4.42 23.0025 4.735 22.515 5.4775 22.79C6.4275 23.1425 6.3575 25.71 8.0825 26.1675C9.8075 26.625 9.8425 24.2675 11.8125 24.4075C13.7825 24.5475 12.8675 27.19 15.4725 27.2225C18.1475 27.2575 17.155 24.6075 19.0275 24.3725C20.88 24.1375 19.9075 27.0125 22.4775 26.625C25.0475 26.2375 24.75 22.58 26.065 22.1925C27.0625 21.9 26.9775 22.88 27.45 22.8375C27.8375 22.8025 27.685 17.44 27.3325 16.245C26.98 15.05 23.67 11.845 16.245 11.88Z" fill="url(#paint0_radial_179_1309)"/>
<path d="M8.2375 19.43C6.365 18.64 5.76 17.8925 5.4575 17.5125C5.2475 17.2475 4.93 17.1425 4.7525 17.355C4.5775 17.565 4.665 17.795 4.8575 18.0225C5.05 18.2525 5.9125 19.57 8.13 20.2925C10.08 20.9275 11.3675 21.015 11.86 21.0325C12.4075 21.0525 12.635 20.365 11.9125 20.275C11.085 20.1725 10.28 20.2925 8.2375 19.43ZM13.8625 20.5275C13.3825 20.515 13.205 20.785 13.205 20.9975C13.205 21.255 13.4275 21.3975 13.815 21.42C14.2025 21.4425 14.425 21.185 14.425 21.01C14.4275 20.8325 14.32 20.5375 13.8625 20.5275Z" fill="#FDFFFF"/>
<path d="M6.285 22.195C6.065 22.41 6.1575 22.66 6.2625 22.79C6.435 23.0025 6.745 23.0375 6.905 22.9125C7.0875 22.7725 7.065 22.5125 6.95 22.34C6.8025 22.115 6.5025 21.98 6.285 22.195ZM6.9 23.12C6.5975 23.29 6.7325 23.6675 6.895 23.9775C7.2425 24.6375 7.3525 25.175 7.7525 25.44C8.1575 25.7075 8.6575 25.5225 8.61 25.245C8.535 24.8025 8.2625 25.1375 8.0275 24.5775C7.93 24.345 7.73 23.9725 7.4975 23.47C7.3625 23.175 7.205 22.9475 6.9 23.12ZM13.945 24.9025C13.6475 25.115 13.8275 25.6525 14.2025 26.075C14.5775 26.4975 15.105 26.8375 15.68 26.685C16.125 26.5675 16.09 26.075 15.785 25.935C15.48 25.795 15.1175 25.8775 14.7875 25.4425C14.6275 25.23 14.4025 24.575 13.945 24.9025ZM21.01 24.44C20.715 24.6575 20.9925 25.11 21.175 25.4225C21.3575 25.735 21.96 26.335 22.3125 25.98C22.57 25.72 22.085 25.405 21.8575 25.065C21.6875 24.8075 21.4025 24.1475 21.01 24.44ZM20.5025 23.625C20.3075 23.7675 20.3375 23.9925 20.4075 24.1175C20.5025 24.2825 20.8075 24.3525 20.9825 24.2C21.1525 24.0525 21.0525 23.8125 20.96 23.695C20.8675 23.5775 20.6325 23.53 20.5025 23.625Z" fill="#FCE9CA"/>
<path d="M21.6 9.89245C21.6 9.89245 19.6675 12.5574 19.79 13.0874C19.885 13.5049 20.335 13.9524 21.2975 14.0174C22.26 14.0824 22.8625 13.6349 23 13.2099C23.185 12.6449 22.5825 10.8449 22.365 10.4874C22.0575 9.97995 21.78 9.90745 21.6 9.89245ZM25.595 12.2974L23.5175 15.2074C23.5175 15.2074 23.58 15.8449 24.205 16.1199C24.8575 16.4049 26.19 16.4224 26.5725 15.8649C27.0075 15.2324 26.82 14.1449 26.6 13.4874C26.43 12.9724 26.07 12.2424 25.595 12.2974ZM22.0775 15.5849L20.0675 18.6724C20.0675 18.6724 20.045 19.4374 20.9525 19.6499C21.6725 19.8174 22.995 19.8249 23.4875 19.4024C23.98 18.9799 23.94 18.1299 23.515 17.2374C23.05 16.2674 22.36 15.3549 22.0775 15.5849ZM17.0725 16.3424L14.44 19.5274C14.44 19.5274 14.3875 20.1424 15.0375 20.4424C15.8725 20.8299 17.1575 20.8099 17.81 20.4599C18.3825 20.1524 18.47 19.1774 18.2625 18.5674C18.0925 18.0699 17.8575 17.6474 17.77 17.4174C17.6825 17.1899 17.3875 16.4824 17.0725 16.3424ZM11.405 15.2674L9.1625 18.7699C9.1625 18.7699 9.2325 19.5874 10.0875 19.7549C10.825 19.8999 12.04 19.9849 12.4625 19.4549C12.885 18.9249 12.9025 17.5799 12.4975 16.6299C12.0925 15.6824 11.74 15.3924 11.405 15.2674ZM8 11.9649L7.7 11.8574L5.7 15.0174C5.7 15.0174 5.6425 15.5749 6.1075 15.8724C6.5475 16.1549 7.9475 16.2949 8.7025 15.9249C9.46 15.5549 9.405 14.3149 8.8775 13.2499C8.39 12.2624 8 11.9649 8 11.9649ZM11.67 9.63245L9.7275 12.9849C9.7275 12.9849 9.8125 13.4199 10.4825 13.6099C11.14 13.7974 12 13.7624 12.44 13.4224C12.8825 13.0824 13 12.3349 12.7975 11.4674C12.66 10.8749 12.1275 9.80245 11.67 9.63245Z" fill="#EE5B4A"/>
<path d="M9.7525 16.49C9.335 17.39 8.75 18.725 9.4175 19.165C10.085 19.605 11.0725 18.9 11.4225 17.58C11.7725 16.26 11.8275 15.6 11.4925 15.3175C11.16 15.04 10.2975 15.3125 9.7525 16.49ZM7.4875 11.755C7.0125 11.785 6.4675 12.52 6.195 13.2425C5.9225 13.965 5.605 14.8625 5.72 15.1525C5.835 15.4425 6.6175 15.795 6.9525 15.18C7.2875 14.565 7.22 13.7425 7.295 13.3225C7.4275 12.5825 8 11.9675 8 11.9675C8 11.9675 7.805 11.735 7.4875 11.755ZM11.2525 9.4875C10.9125 9.5075 10.59 9.65 10.3 10.6C10.1425 11.12 9.6975 11.7225 9.655 12.29C9.6125 12.86 9.74 13.0075 9.74 13.0075C9.74 13.0075 10.555 13.165 10.8725 12.53C11.1775 11.9225 11.0825 11.3025 11.185 11.015C11.2875 10.725 11.755 9.6725 11.755 9.6725C11.755 9.6725 11.55 9.4725 11.2525 9.4875Z" fill="#FD6F42"/>
<path d="M21.5175 9.87501C21.16 9.85751 20.6375 10.3 20.305 11.09C19.97 11.88 19.7675 12.7375 19.7825 12.99C19.7975 13.2425 21.1175 13.2725 21.5825 12.51C21.875 12.03 21.86 10.7425 21.8275 10.4325C21.7975 10.12 21.89 9.89251 21.5175 9.87501ZM25.485 12.2875C25.1775 12.3375 24.4525 12.515 23.8675 13.7775C23.5025 14.565 23.3925 15.3225 23.6575 15.4325C23.9225 15.5425 24.645 15.6525 24.975 15.24C25.305 14.8275 25.67 13.705 25.7525 13.145C25.8325 12.59 25.8875 12.2225 25.485 12.2875ZM20.1425 18.885C20.5375 19.245 21.29 18.905 21.56 18.585C21.9725 18.0925 22.3175 17.0625 22.335 16.3425C22.3475 15.82 22.4675 15.525 22.01 15.55C21.8525 15.56 21.42 15.6375 20.92 16.3775C20.5225 16.9625 20.295 17.425 20.1625 17.9975C20.05 18.4725 20.0275 18.78 20.1425 18.885ZM16.5525 16.165C16.2975 16.155 15.8125 16.305 15.3125 17.1325C14.81 17.96 14.24 19.2975 14.485 19.71C14.7325 20.1225 15.3375 20.1675 15.955 19.9125C16.57 19.6575 16.9925 18.7675 17.0275 18.4075C17.0625 18.0475 17.3 16.5075 17.0975 16.3575C16.895 16.21 16.7725 16.175 16.5525 16.165Z" fill="#FF6E45"/>
<path d="M26.075 6.50744C26.075 9.98994 20.51 13.0774 16.1725 13.0774C11.835 13.0774 6.3175 9.80244 6.3175 6.31994C6.3175 2.83744 11.7575 0.0649414 16.0925 0.0649414C20.4275 0.0649414 26.075 3.02494 26.075 6.50744Z" fill="url(#paint1_radial_179_1309)"/>
<path d="M18.1975 7.78C18.285 7.6575 19.9325 7.795 20.08 7.8325C20.15 7.85 20.1325 14.1325 20.045 14.185C19.97 14.23 19.675 14.5025 19.1125 14.5025C18.55 14.5025 18.2325 14.31 18.1275 14.2375C18.0225 14.1675 18.11 7.9025 18.1975 7.78Z" fill="#FEA8A8"/>
<path d="M15.1725 9.32995C15.105 9.38745 15.085 15.4549 15.1375 15.5074C15.19 15.5599 15.5425 15.8774 16.2275 15.8599C16.915 15.8424 17.23 15.5949 17.2825 15.5424C17.335 15.4899 17.3175 9.32995 17.265 9.29495C17.2125 9.25745 15.2775 9.23995 15.1725 9.32995Z" fill="#EC7FAE"/>
<path d="M12.215 8.02747C12.13 8.07747 12.1275 14.24 12.1625 14.2925C12.1975 14.345 12.7075 14.5225 13.1825 14.5225C13.6575 14.5225 14.115 14.4175 14.1675 14.365C14.22 14.3125 14.185 8.09997 14.1325 8.02997C14.08 7.95997 12.3025 7.97497 12.215 8.02747Z" fill="#93C7EE"/>
<path d="M16.245 3.75C16.35 3.75 16.4925 4.5775 16.685 5.0525C16.8775 5.5275 17.6 6.7075 17.3175 7.7275C17.01 8.845 15.2675 9.0625 14.89 7.605C14.625 6.585 15.5225 5.5275 15.7525 5.0525C15.91 4.725 16.1725 3.75 16.245 3.75Z" fill="url(#paint2_radial_179_1309)"/>
<path d="M19.0775 2.46497C19.0775 2.46497 18.8175 3.64997 18.4975 4.15497C18.04 4.87747 17.75 5.86497 18.11 6.67247C18.5675 7.69247 20.4 7.63997 20.4325 5.89747C20.45 4.98247 20.05 4.49747 19.765 3.97997C19.57 3.62747 19.2 2.49997 19.0775 2.46497Z" fill="url(#paint3_radial_179_1309)"/>
<path d="M13.2525 2.66003C13.2525 2.66003 12.7775 3.84003 12.4775 4.28003C12.1775 4.72003 11.645 5.75753 11.95 6.58503C12.32 7.58753 13.9575 7.70753 14.2725 6.39253C14.4825 5.51253 14.025 4.84503 13.71 4.12253C13.5125 3.66753 13.2525 2.66003 13.2525 2.66003Z" fill="url(#paint4_radial_179_1309)"/>
<defs>
<radialGradient id="paint0_radial_179_1309" cx="0" cy="0" r="1" gradientTransform="matrix(-0.223202 11.444 -24.9128 -0.486466 16.329 15.6813)" gradientUnits="userSpaceOnUse">
<stop offset="0.445" stop-color="#FEEAC9"/>
<stop offset="0.565" stop-color="#FEE7C2"/>
<stop offset="0.741" stop-color="#FEDEAE"/>
<stop offset="0.952" stop-color="#FFCF8D"/>
<stop offset="1" stop-color="#FFCB85"/>
</radialGradient>
<radialGradient id="paint1_radial_179_1309" cx="0" cy="0" r="1" gradientUnits="userSpaceOnUse" gradientTransform="translate(16.1978 6.57086) scale(9.756 6.00677)">
<stop offset="0.034" stop-color="#FFE265" stop-opacity="0.7"/>
<stop offset="0.112" stop-color="#FFE575" stop-opacity="0.643"/>
<stop offset="0.417" stop-color="#FFF0B0" stop-opacity="0.422"/>
<stop offset="0.677" stop-color="#FFF8DB" stop-opacity="0.234"/>
<stop offset="0.88" stop-color="#FFFDF5" stop-opacity="0.087"/>
<stop offset="1" stop-color="white" stop-opacity="0"/>
</radialGradient>
<radialGradient id="paint2_radial_179_1309" cx="0" cy="0" r="1" gradientUnits="userSpaceOnUse" gradientTransform="translate(16.2273 8.9945) scale(4.857 4.857)">
<stop offset="0.17" stop-color="#FF9616"/>
<stop offset="0.654" stop-color="#FFD429"/>
</radialGradient>
<radialGradient id="paint3_radial_179_1309" cx="0" cy="0" r="1" gradientUnits="userSpaceOnUse" gradientTransform="translate(19.303 7.70672) scale(4.761)">
<stop offset="0.17" stop-color="#FF9616"/>
<stop offset="0.654" stop-color="#FFD429"/>
</radialGradient>
<radialGradient id="paint4_radial_179_1309" cx="0" cy="0" r="1" gradientUnits="userSpaceOnUse" gradientTransform="translate(13.2055 7.70553) scale(4.71325)">
<stop offset="0.17" stop-color="#FF9616"/>
<stop offset="0.654" stop-color="#FFD429"/>
</radialGradient>
</defs>
</svg>
