<svg width="24" height="24" viewBox="0 0 24 24" fill="none" xmlns="http://www.w3.org/2000/svg">
<path d="M10.5 15.25C10.3071 15.2352 10.1276 15.1455 10 15L7 12C6.93316 11.86 6.91135 11.7028 6.93757 11.5499C6.9638 11.3971 7.03677 11.2561 7.14644 11.1464C7.25611 11.0368 7.39708 10.9638 7.54995 10.9376C7.70281 10.9113 7.86004 10.9331 8 11L10.47 13.47L19 4.99998C19.14 4.93314 19.2972 4.91133 19.45 4.93756C19.6029 4.96379 19.7439 5.03676 19.8536 5.14643C19.9632 5.2561 20.0362 5.39707 20.0624 5.54993C20.0886 5.70279 20.0668 5.86003 20 5.99998L11 15C10.8724 15.1455 10.6929 15.2352 10.5 15.25Z" fill="#FE564B"/>
<path d="M12 21.0001C10.3915 20.9975 8.81302 20.5638 7.42892 19.7443C6.04483 18.9247 4.90567 17.7492 4.13 16.3401C3.54119 15.2897 3.17684 14.1285 3.06 12.9301C2.87698 11.1721 3.21561 9.39923 4.03365 7.83252C4.85168 6.2658 6.11291 4.97462 7.66 4.12005C8.71037 3.53124 9.87154 3.16689 11.07 3.05005C12.2642 2.92271 13.4717 3.03837 14.62 3.39005C14.7225 3.41052 14.8195 3.45218 14.9049 3.51234C14.9904 3.57251 15.0623 3.64986 15.116 3.73943C15.1698 3.82901 15.2043 3.92883 15.2173 4.03251C15.2302 4.13619 15.2214 4.24143 15.1913 4.34149C15.1612 4.44154 15.1105 4.53421 15.0425 4.61355C14.9746 4.69288 14.8907 4.75714 14.7965 4.8022C14.7022 4.84725 14.5996 4.87212 14.4951 4.87519C14.3907 4.87826 14.2868 4.85948 14.19 4.82005C13.2187 4.52744 12.1987 4.43224 11.19 4.54005C10.1928 4.64132 9.22663 4.94411 8.35 5.43005C7.50513 5.89615 6.75814 6.52091 6.15 7.27005C5.52386 8.03321 5.0563 8.91364 4.77469 9.85977C4.49308 10.8059 4.4031 11.7987 4.51 12.7801C4.61127 13.7772 4.91406 14.7434 5.4 15.6201C5.8661 16.4649 6.49086 17.2119 7.24 17.8201C8.00316 18.4462 8.88359 18.9138 9.82972 19.1954C10.7758 19.477 11.7687 19.567 12.75 19.4601C13.7472 19.3588 14.7134 19.056 15.59 18.5701C16.4349 18.1039 17.1819 17.4792 17.79 16.7301C18.4161 15.9669 18.8837 15.0865 19.1653 14.1403C19.4469 13.1942 19.5369 12.2014 19.43 11.2201C19.4101 11.0119 19.4737 10.8043 19.6069 10.643C19.74 10.4817 19.9318 10.3799 20.14 10.3601C20.3482 10.3402 20.5558 10.4038 20.717 10.5369C20.8783 10.6701 20.9801 10.8619 21 11.0701C21.1821 12.829 20.842 14.6027 20.0221 16.1695C19.2022 17.7363 17.9389 19.0269 16.39 19.8801C15.3284 20.493 14.1494 20.8746 12.93 21.0001H12Z" fill="#FE564B"/>
</svg>
