<svg width="1104" height="175" viewBox="0 0 1104 175" fill="none" xmlns="http://www.w3.org/2000/svg">
<rect x="546" y="131" width="26.84" height="8.76" transform="rotate(105 546 131)" fill="#FF7272" fill-opacity="0.35"/>
<rect x="899.406" y="121.163" width="29.84" height="4.76" transform="rotate(151 899.406 121.163)" fill="#470100" fill-opacity="0.45"/>
<rect x="915.716" y="30.9921" width="16.84" height="4.76" transform="rotate(147 915.716 30.9921)" fill="#FF7272" fill-opacity="0.9"/>
<rect x="248.859" y="37.3452" width="36.84" height="6.76" transform="rotate(130 248.859 37.3452)" fill="#470100" fill-opacity="0.85"/>
<rect x="67" y="24.5846" width="8.84" height="6.76" transform="rotate(-17 67 24.5846)" fill="#470100" fill-opacity="0.45"/>
<rect x="47.5527" y="91.171" width="15.84" height="9.76" transform="rotate(-92 47.5527 91.171)" fill="#470100" fill-opacity="0.45"/>
<rect x="682" y="6" width="14.84" height="8.76" transform="rotate(50 682 6)" fill="#470100"/>
<rect x="370.825" y="159.588" width="23.84" height="6.76" transform="rotate(-178 370.825 159.588)" fill="#FF7272"/>
<rect x="647.752" y="142.16" width="11.84" height="5.76" transform="rotate(-173 647.752 142.16)" fill="#470100" fill-opacity="0.9"/>
<circle cx="1065.98" cy="98.8766" r="7.8" fill="#FF7272" fill-opacity="0.6"/>
<circle cx="-1.2" cy="109.8" r="7.8" fill="#470100" fill-opacity="0.9"/>
<circle cx="777.8" cy="90.8" r="7.8" fill="#470100" fill-opacity="0.65"/>
<circle cx="127.8" cy="52.8" r="5.8" fill="#FF7272" fill-opacity="0.75"/>
<circle cx="941.977" cy="171.877" r="2.8" fill="#FF7272" fill-opacity="0.35"/>
<circle cx="1036.3" cy="4.3" r="3.3" fill="#470100" fill-opacity="0.9"/>
<circle cx="181.3" cy="11.3" r="5.3" fill="#FF7272"/>
<path d="M106.977 124.866L113.223 130.834L121.819 129.977L115.851 136.223L116.708 144.819L110.462 138.851L101.866 139.708L107.834 133.462L106.977 124.866Z" fill="#FF7272" fill-opacity="0.35"/>
<path d="M766.463 133.248L766.218 147.276L754.193 140.05L766.463 133.248Z" fill="#FF7272" fill-opacity="0.45"/>
<path d="M824.396 22.0129L817.4 19.0434L816.474 11.5L822.543 6.92621L829.539 9.89576L830.465 17.4391L824.396 22.0129Z" fill="#FF7272" fill-opacity="0.45"/>
<path d="M250.949 112.771L246.59 104.218L251.819 96.1666L261.406 96.669L265.764 105.223L260.536 113.274L250.949 112.771Z" fill="#FF7272" fill-opacity="0.9"/>
<path d="M865.725 87.5752L870.556 97.9357L859.168 96.9394L865.725 87.5752Z" fill="#470100" fill-opacity="0.35"/>
<path d="M521.588 17.6265L514.376 12.9426L514.826 4.3544L522.488 0.450082L529.701 5.13398L529.251 13.7222L521.588 17.6265Z" fill="#FF7272" fill-opacity="0.35"/>
<path d="M181.444 159.02L173.22 161.534L166.931 155.669L168.865 147.29L177.089 144.775L183.379 150.64L181.444 159.02Z" fill="#470100" fill-opacity="0.45"/>
<path d="M1090.38 43.382L1096.74 34.944L1100.87 44.6696L1090.38 43.382Z" fill="#FF7272" fill-opacity="0.85"/>
<path d="M566.19 71.9464L565.325 78.9218L572.268 80.0126L565.795 82.7509L568.322 89.3097L562.714 85.0726L558.297 90.5406L559.163 83.5652L552.219 82.4744L558.692 79.7361L556.165 73.1773L561.773 77.4144L566.19 71.9464Z" fill="#FF7272" fill-opacity="0.9"/>
<path d="M350.656 10.7574L344.653 16.4158L345.041 24.6565L339.382 18.6531L331.142 19.0409L337.145 13.3824L336.757 5.14175L342.416 11.1451L350.656 10.7574Z" fill="#470100" fill-opacity="0.65"/>
<path d="M947.113 119.314L944.814 124.731L949.255 128.592L943.393 128.079L941.093 133.496L939.769 127.762L933.907 127.249L938.951 124.218L937.627 118.484L942.069 122.345L947.113 119.314Z" fill="#470100" fill-opacity="0.75"/>
<path d="M433.262 170.44L433.239 166.082L429.915 163.262L434.274 163.239L437.093 159.915L437.116 164.274L440.44 167.093L436.082 167.116L433.262 170.44Z" fill="#470100" fill-opacity="0.6"/>
<path d="M1010.1 59.9641L1003.41 59.9999L999.081 65.1041L999.046 58.411L993.941 54.0814L1000.63 54.0456L1004.96 48.9414L1005 55.6345L1010.1 59.9641Z" fill="#FF7272" fill-opacity="0.65"/>
<path d="M433.363 30.8921L429.646 33.3059L430.793 37.5868L427.349 34.7977L423.632 37.2115L425.22 33.074L421.776 30.2849L426.202 30.5168L427.79 26.3793L428.937 30.6602L433.363 30.8921Z" fill="#470100" fill-opacity="0.45"/>
<path d="M1051.26 169.986L1046.53 167.142L1042.36 170.765L1043.61 165.385L1038.87 162.541L1044.37 162.059L1045.62 156.679L1047.77 161.762L1053.27 161.281L1049.11 164.903L1051.26 169.986Z" fill="#FF7272" fill-opacity="0.75"/>
<path d="M311.604 91.998L315.161 94.3146L317.592 90.8341L317.364 95.0732L321.594 95.4378L317.809 97.3603L319.608 101.205L316.05 98.889L313.62 102.369L313.847 98.1304L309.618 97.7657L313.403 95.8432L311.604 91.998Z" fill="#470100" fill-opacity="0.85"/>
</svg>
