<svg width="32" height="32" viewBox="0 0 32 32" fill="none" xmlns="http://www.w3.org/2000/svg">
<path d="M15.7915 11.4668L8.74182 16.2037C8.74182 16.2037 4.50424 7.60252 4.11636 4.27161C4.12121 4.27161 12.9988 7.82555 15.7915 11.4668Z" fill="#FE515E"/>
<path d="M15.7964 11.4716L8.74667 16.2085C8.74667 16.2085 6.46303 11.5685 5.09576 7.78186C5.40121 8.48004 8.8 15.9031 13.6291 9.41095C14.5067 10.08 15.263 10.7782 15.7964 11.4716Z" fill="#F83B4D"/>
<path d="M5.12485 1.94428C5.52243 2.10428 4.99394 3.44731 4.99394 3.44731C4.99394 3.44731 6.62303 3.18065 6.73939 3.54913C6.84606 3.89338 5.37697 4.31035 5.37697 4.31035C5.37697 4.31035 6.80727 5.02792 6.60849 5.35277C6.37091 5.74065 4.6303 4.95035 4.6303 4.95035C4.6303 4.95035 5.06667 6.49216 4.61091 6.58428C4.18424 6.67156 3.77697 5.22671 3.77697 5.22671C3.77697 5.22671 3.20485 6.5261 2.81697 6.39035C2.38546 6.24004 3.01091 4.79035 3.01091 4.79035C3.01091 4.79035 1.28485 5.02307 1.18303 4.63035C1.09576 4.29095 2.56 3.94671 2.56 3.94671C2.56 3.94671 1.19273 3.26792 1.37697 2.95277C1.59515 2.58428 3.25333 3.28732 3.25333 3.28732C3.25333 3.28732 2.83152 1.49338 3.36 1.40125C3.80121 1.32853 4.1697 2.82186 4.1697 2.82186C4.1697 2.82186 4.80485 1.81338 5.12485 1.94428Z" fill="#509DFF"/>
<path d="M9.04727 6.57932C8.54303 7.88841 7.71879 9.54175 6.43879 11.1708C6.20121 10.623 5.96849 10.0508 5.74061 9.48357C6.63273 8.16963 7.22909 6.87023 7.61212 5.85205C8.06788 6.07023 8.54788 6.31751 9.04727 6.57932Z" fill="white"/>
<path d="M9.04727 6.57938C8.60121 7.72847 7.91758 9.14907 6.88485 10.5794C6.7394 10.7733 6.59879 10.9721 6.44364 11.1612V11.166C6.37576 11.0109 6.31273 10.8509 6.24485 10.6909C6.14303 10.4485 6.04606 10.206 5.94424 9.96362C5.88121 9.80362 5.80849 9.63877 5.74546 9.47877L5.7503 9.47392C5.79879 9.4012 5.84727 9.32847 5.89091 9.25089C6.70061 8.01453 7.25334 6.80726 7.61212 5.84241C8.06788 6.07029 8.54788 6.31756 9.04727 6.57938Z" fill="white"/>
<path d="M12.0388 8.31028C11.3891 10.046 10.1673 12.4848 7.99515 14.6375C7.79636 14.2012 7.56364 13.6969 7.31152 13.1442C9.1297 11.1418 10.1285 8.93573 10.6473 7.46179C11.1176 7.73331 11.583 8.01937 12.0388 8.31028Z" fill="white"/>
<path d="M12.0388 8.31028C11.3891 10.046 10.1673 12.4848 7.99515 14.6375C7.79636 14.2012 7.56364 13.6969 7.31152 13.1442C9.1297 11.1418 10.1285 8.93573 10.6473 7.46179C11.1176 7.73331 11.583 8.01937 12.0388 8.31028Z" fill="white"/>
<path d="M6.88 10.5795C6.73455 10.7734 6.59394 10.9722 6.43879 11.1613C6.37091 11.0061 6.30788 10.851 6.24 10.691C6.13818 10.4486 6.04121 10.2061 5.9394 9.9637C5.87152 9.79886 5.80849 9.63886 5.74546 9.47401C5.79394 9.40128 5.84243 9.32855 5.88606 9.25098C6.15758 9.68249 6.49212 10.1528 6.88 10.5795Z" fill="#F4EDED"/>
<path d="M10.1382 12.0243C9.55636 12.9018 8.84364 13.794 7.9903 14.6376C7.93697 14.5212 7.87879 14.4 7.82061 14.2788C7.73818 14.0994 7.65576 13.9103 7.55879 13.7164C7.47636 13.5321 7.38909 13.3431 7.30182 13.1443C7.71394 12.6934 8.08727 12.2231 8.41697 11.7625C8.94546 12.0049 9.52242 12.1164 10.1382 12.0243Z" fill="#F4EDED"/>
<path d="M19.0642 30.4049C25.1159 30.4049 30.0218 25.499 30.0218 19.4473C30.0218 13.3956 25.1159 8.48975 19.0642 8.48975C13.0125 8.48975 8.10667 13.3956 8.10667 19.4473C8.10667 25.499 13.0125 30.4049 19.0642 30.4049Z" fill="#FFCD3B"/>
<path d="M19.0642 30.4049C25.1159 30.4049 30.0218 25.499 30.0218 19.4473C30.0218 13.3956 25.1159 8.48975 19.0642 8.48975C13.0125 8.48975 8.10667 13.3956 8.10667 19.4473C8.10667 25.499 13.0125 30.4049 19.0642 30.4049Z" fill="#FFCD3B"/>
<path d="M9.72122 21.5467C10.017 21.4886 10.4097 22.211 10.7927 23.0837C11.1709 23.9613 11.4424 24.7322 11.1952 24.9164C10.9624 25.0958 10.2303 24.5286 9.79394 23.5249C9.35758 22.5213 9.42546 21.6001 9.72122 21.5467Z" fill="white"/>
<path d="M9.48849 19.4474C9.72606 19.4522 9.91516 19.7916 9.9491 20.2086C9.98303 20.6256 9.85213 20.9941 9.6194 21.0377C9.38667 21.0813 9.1297 20.7419 9.09091 20.2813C9.05697 19.8207 9.25576 19.4474 9.48849 19.4474Z" fill="white"/>
<path d="M11.6849 16.0582C11.6558 16.0243 11.68 15.9467 11.7576 15.8401C11.8352 15.7382 11.9467 15.5879 12.1261 15.4473C12.2133 15.3746 12.3055 15.2873 12.417 15.2146C12.5285 15.1419 12.6497 15.0594 12.7806 14.9819C12.9164 14.914 13.057 14.8364 13.2121 14.7685C13.3673 14.7104 13.5273 14.6328 13.7018 14.5891C13.8715 14.5358 14.0412 14.497 14.2061 14.4679C14.3709 14.434 14.5358 14.4291 14.6861 14.4146C14.8412 14.4146 14.9867 14.4098 15.1224 14.4291C15.2582 14.4437 15.3842 14.4631 15.5006 14.4922C15.9564 14.6037 16.2036 14.8413 16.1455 15.011C16.0921 15.1855 15.8206 15.2534 15.423 15.2922C15.3212 15.297 15.2097 15.3067 15.0982 15.3164C14.9818 15.3213 14.8558 15.331 14.7297 15.3358C14.5988 15.3504 14.463 15.3504 14.3224 15.3698C14.1818 15.3795 14.0364 15.4037 13.8861 15.4279C13.7358 15.4425 13.5952 15.4861 13.4497 15.5104C13.3091 15.5443 13.1782 15.5831 13.0473 15.617C12.9212 15.6607 12.8 15.6994 12.6836 15.7382C12.5673 15.777 12.4703 15.8255 12.3685 15.8643C12.1697 15.937 12.0194 16.0146 11.8982 16.0485C11.7915 16.0922 11.7139 16.097 11.6849 16.0582Z" fill="#0B183D"/>
<path d="M26.4485 16.0582C26.4776 16.0243 26.4533 15.9467 26.3758 15.8401C26.2982 15.7382 26.1867 15.5879 26.0073 15.4473C25.92 15.3746 25.8279 15.2873 25.7164 15.2146C25.6049 15.1419 25.4836 15.0594 25.3527 14.9819C25.217 14.914 25.0764 14.8364 24.9212 14.7685C24.7661 14.7104 24.6061 14.6328 24.4315 14.5891C24.2618 14.5358 24.0921 14.497 23.9273 14.4679C23.7624 14.434 23.5976 14.4291 23.4473 14.4146C23.2921 14.4146 23.1467 14.4098 23.0109 14.4291C22.8752 14.4437 22.7491 14.4631 22.6327 14.4922C22.177 14.6037 21.9297 14.8413 21.9879 15.011C22.0412 15.1855 22.3127 15.2534 22.7103 15.2922C22.8121 15.297 22.9236 15.3067 23.0352 15.3164C23.1515 15.3213 23.2776 15.331 23.4036 15.3358C23.5345 15.3504 23.6703 15.3504 23.8109 15.3698C23.9515 15.3795 24.097 15.4037 24.2473 15.4279C24.3976 15.4425 24.5382 15.4861 24.6836 15.5104C24.8242 15.5443 24.9552 15.5831 25.0861 15.617C25.2121 15.6607 25.3333 15.6994 25.4497 15.7382C25.5661 15.777 25.663 15.8255 25.7649 15.8643C25.9636 15.937 26.1139 16.0146 26.2352 16.0485C26.337 16.0922 26.4194 16.097 26.4485 16.0582Z" fill="#0B183D"/>
<path d="M21.857 25.9734C21.8327 26.0656 21.7988 26.1528 21.7406 26.2304C21.6873 26.3031 21.6436 26.3468 21.5903 26.3904C21.4933 26.4777 21.3964 26.5359 21.2994 26.5843C21.1103 26.6862 20.9309 26.7492 20.7661 26.8025C20.4315 26.9092 20.1358 26.9625 19.8885 27.0013C19.3939 27.074 19.103 27.0595 19.0933 26.9916C19.0788 26.9286 19.3455 26.8171 19.7964 26.6474C20.0194 26.5601 20.2909 26.4631 20.5818 26.3274C20.7273 26.2595 20.8776 26.1868 21.0133 26.0946C21.0812 26.051 21.1442 26.0025 21.1879 25.954C21.2121 25.9298 21.2364 25.9007 21.2364 25.891C21.2412 25.8862 21.2412 25.8813 21.2412 25.8765C21.2315 25.8668 21.2364 25.8571 21.2267 25.8571C21.2218 25.8571 21.2073 25.8328 21.183 25.8134C21.1636 25.794 21.1394 25.7746 21.1103 25.7553C20.9988 25.668 20.8533 25.5807 20.6982 25.4934C20.543 25.4013 20.3782 25.3092 20.1988 25.1831C20.1115 25.1201 20.0194 25.0522 19.9273 24.9456C19.6073 24.6692 19.6412 24.2425 19.9273 24.0243C19.9709 23.971 20.0097 23.9371 20.0533 23.9031C20.0921 23.8692 20.1309 23.8353 20.1697 23.811C20.3248 23.6946 20.4752 23.6122 20.6109 23.5346C20.7515 23.4522 20.8873 23.3795 20.9988 23.3068C21.057 23.268 21.1055 23.234 21.1539 23.1953L21.2073 23.1468C21.217 23.1274 21.2218 23.1322 21.2267 23.1274C21.2315 23.1225 21.2315 23.1177 21.2364 23.1128C21.2364 23.1031 21.2461 23.1031 21.2121 23.0643C21.1636 22.9965 21.0715 22.9189 20.9794 22.8559C20.7903 22.725 20.577 22.6183 20.383 22.5213C19.5976 22.1577 19.0642 21.9734 19.0933 21.8765C19.1127 21.7892 19.68 21.8086 20.5624 22.0753C20.7855 22.148 21.023 22.2353 21.28 22.3759C21.4109 22.4486 21.5418 22.531 21.6727 22.6765C21.7067 22.7104 21.7358 22.7492 21.7745 22.8122C21.7988 22.8753 21.8327 22.9334 21.8473 23.0013C21.8715 23.0643 21.8521 23.1371 21.857 23.2001C21.8521 23.2728 21.8182 23.331 21.7988 23.3989C21.7697 23.4619 21.7212 23.5153 21.6921 23.5589C21.6582 23.6025 21.6242 23.6316 21.5855 23.6656C21.5176 23.7286 21.4449 23.7868 21.3721 23.8353C21.2315 23.9371 21.0958 24.0195 20.9552 24.1019C20.8194 24.1843 20.6885 24.2668 20.577 24.3492C20.5479 24.3686 20.5188 24.3928 20.4994 24.4122C20.48 24.4316 20.4509 24.4559 20.4412 24.4704C20.4267 24.485 20.4267 24.4898 20.4267 24.4898C20.4267 24.4898 20.4315 24.4946 20.4461 24.5092C20.4752 24.548 20.5382 24.6013 20.6012 24.6498C20.7321 24.7468 20.8824 24.8389 21.0376 24.9359C21.1927 25.0328 21.3527 25.1346 21.5127 25.2656C21.5515 25.2946 21.5903 25.3334 21.6291 25.3771C21.6727 25.4159 21.7018 25.4546 21.7503 25.5274C21.8473 25.6631 21.8764 25.8231 21.857 25.9734Z" fill="#0B183D"/>
<path d="M21.857 25.9734C21.8327 26.0656 21.7988 26.1528 21.7406 26.2304C21.6873 26.3031 21.6436 26.3468 21.5903 26.3904C21.4933 26.4777 21.3964 26.5359 21.2994 26.5843C21.1103 26.6862 20.9309 26.7492 20.7661 26.8025C20.4315 26.9092 20.1358 26.9625 19.8885 27.0013C19.3939 27.074 19.103 27.0595 19.0933 26.9916C19.0788 26.9286 19.3455 26.8171 19.7964 26.6474C20.0194 26.5601 20.2909 26.4631 20.5818 26.3274C20.7273 26.2595 20.8776 26.1868 21.0133 26.0946C21.0812 26.051 21.1442 26.0025 21.1879 25.954C21.2121 25.9298 21.2364 25.9007 21.2364 25.891C21.2412 25.8862 21.2412 25.8813 21.2412 25.8765C21.2315 25.8668 21.2364 25.8571 21.2267 25.8571C21.2218 25.8571 21.2073 25.8328 21.183 25.8134C21.1636 25.794 21.1394 25.7746 21.1103 25.7553C20.9988 25.668 20.8533 25.5807 20.6982 25.4934C20.6642 25.474 20.6255 25.4498 20.5867 25.4304C20.4606 25.3577 20.3346 25.285 20.1988 25.1831C20.1115 25.1201 20.0194 25.0522 19.9273 24.9456C19.6073 24.6692 19.6412 24.2425 19.9273 24.0243C19.9418 24.005 19.9564 23.9904 19.9709 23.9759C20 23.9516 20.0242 23.9274 20.0485 23.9031C20.0873 23.8692 20.1261 23.8353 20.1649 23.811C20.32 23.6946 20.4703 23.6122 20.6061 23.5346C20.7467 23.4522 20.8824 23.3795 20.9939 23.3068C21.0521 23.268 21.1006 23.234 21.1491 23.1953L21.2024 23.1468C21.2121 23.1274 21.217 23.1322 21.2218 23.1274C21.2267 23.1225 21.2267 23.1177 21.2315 23.1128C21.2315 23.1031 21.2412 23.1031 21.2073 23.0643C21.1588 22.9965 21.0667 22.9189 20.9746 22.8559C20.7855 22.725 20.5721 22.6183 20.3782 22.5213C19.5927 22.1577 19.0594 21.9734 19.0885 21.8765C19.1079 21.7892 19.6752 21.8086 20.5576 22.0753C20.7806 22.148 21.0182 22.2353 21.2752 22.3759C21.4061 22.4486 21.537 22.531 21.6679 22.6765C21.7018 22.7104 21.7309 22.7492 21.7697 22.8122C21.7939 22.8753 21.8279 22.9334 21.8424 23.0013C21.8667 23.0643 21.8473 23.1371 21.8521 23.2001C21.8473 23.268 21.8133 23.331 21.7939 23.3989C21.7649 23.4619 21.7164 23.5153 21.6873 23.5637C21.6533 23.6074 21.6194 23.6365 21.5806 23.6704C21.5127 23.7334 21.44 23.7916 21.3673 23.8401C21.2994 23.8886 21.2267 23.9371 21.1588 23.9807C21.0909 24.0243 21.0182 24.068 20.9503 24.1068C20.8146 24.1892 20.6836 24.2716 20.5721 24.354C20.543 24.3734 20.5139 24.3977 20.4946 24.4171C20.4752 24.4365 20.4461 24.4607 20.4364 24.4753C20.4218 24.4898 20.4218 24.4946 20.4218 24.4946C20.4218 24.4946 20.4267 24.4995 20.4412 24.514C20.4703 24.5528 20.5333 24.6062 20.5964 24.6546C20.7273 24.7516 20.8776 24.8437 21.0327 24.9407C21.1879 25.0377 21.3479 25.1395 21.5079 25.2704C21.5467 25.2995 21.5855 25.3383 21.6242 25.3819C21.6436 25.4013 21.6582 25.4159 21.6776 25.4401C21.697 25.4643 21.7212 25.4934 21.7455 25.5322C21.8473 25.6583 21.8764 25.8183 21.857 25.9734Z" fill="#0B183D"/>
<path d="M22.5406 10.3516C21.7552 10.3516 20.6545 9.92491 20.2424 9.75036C20.1115 9.69703 20.0485 9.54672 20.1018 9.41097C20.1552 9.28006 20.3103 9.21703 20.4412 9.27036C21.5515 9.73582 22.6861 9.96854 22.8655 9.76975C22.8945 9.67763 22.6958 9.2946 22.5939 9.08612C22.3564 8.62066 22.1091 8.14066 22.3952 7.82066C22.6812 7.50066 23.1952 7.68975 23.6897 7.874C23.903 7.95157 24.2861 8.09703 24.4121 8.06794C24.4073 7.96612 24.3006 7.72369 24.2327 7.57339C24.063 7.20006 23.8885 6.81218 24.1067 6.53582C24.2909 6.30309 24.8145 6.26915 25.663 6.44369C25.8036 6.47279 25.8909 6.60854 25.8618 6.74915C25.8327 6.88975 25.697 6.97703 25.5564 6.94794C25.1248 6.86066 24.6594 6.82672 24.5091 6.87036C24.5139 6.95763 24.6352 7.21945 24.6982 7.36491C24.8727 7.75278 25.0521 8.15036 24.8 8.42188C24.5091 8.73218 24 8.54794 23.5103 8.36369C23.2873 8.28127 22.8752 8.12612 22.7733 8.1746C22.7491 8.26672 22.9479 8.64976 23.0545 8.85824C23.2921 9.32369 23.5394 9.80854 23.2485 10.1237C23.0933 10.2885 22.8412 10.3516 22.5406 10.3516Z" fill="#FE515E"/>
<path d="M26.9915 10.6037C26.9915 11.1613 26.5406 11.6122 25.983 11.6122C25.4255 11.6122 24.9745 11.1613 24.9745 10.6037C24.9745 10.0461 25.4255 9.59521 25.983 9.59521C26.5406 9.59521 26.9915 10.0461 26.9915 10.6037Z" fill="#509DFF"/>
<g opacity="0.3">
<path d="M26.5018 10.08C26.6958 10.2885 26.7539 10.5455 26.6376 10.657C26.5164 10.7685 26.2642 10.6861 26.0752 10.4776C25.8812 10.2691 25.823 10.0121 25.9394 9.9006C26.0558 9.79394 26.3079 9.87151 26.5018 10.08Z" fill="white"/>
</g>
<path d="M16.3539 7.24372C16.3539 7.73341 15.9564 8.13099 15.4667 8.13099C14.977 8.13099 14.5794 7.73341 14.5794 7.24372C14.5794 6.75402 14.977 6.35645 15.4667 6.35645C15.9564 6.35645 16.3539 6.75402 16.3539 7.24372Z" fill="#509DFF"/>
<path d="M7.73818 30.0994C7.73334 30.0994 7.72849 30.0994 7.72364 30.0994C7.58303 30.0897 7.47152 29.9685 7.48121 29.8279C7.49091 29.6679 7.48121 29.5079 7.47637 29.3334C7.46182 28.9843 7.44243 28.6207 7.57334 28.2667C7.66546 28.0146 7.82546 27.7916 8.03394 27.6267C8.23758 27.4667 8.48485 27.36 8.74667 27.3164C8.76121 27.2291 8.77576 27.1419 8.79515 27.0546C8.89212 26.6134 9.14909 26.2255 9.52728 25.9588C9.84243 25.7358 10.2255 25.6194 10.5988 25.6243C11.3018 25.634 11.9903 25.76 12.6449 26.0025C12.7806 26.051 12.8485 26.2013 12.8 26.3322C12.7515 26.4679 12.6061 26.5358 12.4703 26.4873C11.8691 26.2691 11.2339 26.1528 10.5891 26.1431C10.3273 26.1334 10.0509 26.2255 9.82303 26.3855C9.55152 26.5746 9.36728 26.8558 9.2994 27.171C9.2897 27.2243 9.28 27.2728 9.27031 27.3261C9.36243 27.3407 9.4497 27.3649 9.53697 27.394C10.017 27.5637 10.4097 27.9613 10.5891 28.4607C10.7055 28.7758 10.7006 29.0667 10.5842 29.2994C10.4485 29.5758 10.143 29.7552 9.82303 29.7552H9.81818C9.53212 29.7504 9.24606 29.6097 9.05212 29.3722C8.83394 29.1055 8.77091 28.7807 8.73697 28.5237C8.70788 28.3055 8.69334 28.0825 8.70303 27.8594C8.57697 27.8934 8.46061 27.9516 8.36364 28.034C8.22788 28.1407 8.12121 28.291 8.06303 28.451C7.96606 28.7079 7.98061 29.0037 8 29.314C8.0097 29.4934 8.0194 29.6776 8.00485 29.8667C7.99031 29.9928 7.87394 30.0994 7.73818 30.0994ZM9.21212 27.8304C9.20728 28.034 9.21697 28.2425 9.24121 28.4461C9.28 28.7273 9.34303 28.9067 9.44485 29.0376C9.54182 29.154 9.68243 29.2267 9.81334 29.2316H9.81818C9.94424 29.2316 10.0703 29.1588 10.1188 29.0619C10.1867 28.9213 10.1382 28.7322 10.0994 28.6304C9.96849 28.2764 9.69212 27.9904 9.35758 27.874C9.30909 27.8546 9.26061 27.8401 9.21212 27.8304Z" fill="#509DFF"/>
<path d="M17.1103 19.3649C16.6158 19.1855 15.7091 18.9868 14.7491 19.4134C14.1673 19.6752 13.7939 19.7431 13.5564 19.7334C13.2897 19.7237 13.0958 19.4716 13.1394 19.2098C13.1879 18.9334 13.4158 18.6716 13.983 18.4583C14.4679 18.274 14.9964 18.2207 15.5103 18.274C16.4655 18.3758 16.9939 18.8219 17.2558 19.1565C17.3479 19.2631 17.2364 19.4134 17.1103 19.3649Z" fill="#0B183D"/>
<path d="M21.0182 19.3649C21.5127 19.1855 22.4194 18.9868 23.3794 19.4134C23.9612 19.6752 24.3345 19.7431 24.5721 19.7334C24.8388 19.7237 25.0327 19.4716 24.9891 19.2098C24.9406 18.9334 24.7127 18.6716 24.1455 18.4583C23.6606 18.274 23.1321 18.2207 22.6182 18.274C21.663 18.3758 21.1345 18.8219 20.8727 19.1565C20.7855 19.2631 20.8921 19.4134 21.0182 19.3649Z" fill="#0B183D"/>
<path d="M30.0218 19.4474C30.0218 25.4983 25.1152 30.405 19.0642 30.405C17.3382 30.405 15.7091 30.0074 14.2594 29.2947C15.8012 27.3504 18.2352 28.3298 23.4618 26.5698C27.583 25.188 29.7018 22.3613 29.9346 18.051C29.9927 18.5116 30.0218 18.9771 30.0218 19.4474Z" fill="#FCB910"/>
<path d="M8.1697 24.577L6.80243 25.4934C6.75394 25.5273 6.68606 25.4982 6.68121 25.4352L6.54061 23.777C6.53576 23.7189 6.59879 23.6752 6.65212 23.6995L8.16 24.4461C8.21333 24.4704 8.21818 24.5431 8.1697 24.577Z" fill="#FE515E"/>
<path d="M25.92 30.1285L23.6267 30.5988C23.5685 30.6134 23.52 30.5552 23.5394 30.5018L24.2424 28.2425C24.2618 28.1843 24.3345 28.1697 24.3733 28.2134L25.9588 29.9976C26.0024 30.0461 25.9782 30.114 25.92 30.1285Z" fill="#FE515E"/>
<path d="M26.8849 11.0546V11.0594C26.72 11.3891 26.3806 11.6122 25.983 11.6122C25.4255 11.6122 24.9745 11.1613 24.9745 10.6037C24.9745 10.4922 24.9939 10.3807 25.0279 10.2837C25.0618 10.3952 25.1249 10.5067 25.2024 10.594C25.3285 10.7443 25.4933 10.8558 25.6727 10.9334C26.0509 11.1079 26.4824 11.1467 26.8849 11.0546Z" fill="#308CEF"/>
<g opacity="0.3">
<path d="M15.9127 6.72009C16.0533 6.83646 16.1164 6.99646 16.0485 7.07403C15.9806 7.15646 15.8158 7.12737 15.6703 7.011C15.5297 6.89464 15.4667 6.73464 15.5346 6.65706C15.6024 6.57949 15.7721 6.60373 15.9127 6.72009Z" fill="white"/>
</g>
<path d="M16.3297 7.45214C16.2376 7.84487 15.8836 8.13093 15.4667 8.13093C14.977 8.13093 14.5794 7.73335 14.5794 7.24366C14.5794 7.17578 14.5891 7.11275 14.5988 7.05457C14.6521 7.15638 14.7249 7.24366 14.8121 7.32123C15.1515 7.62184 15.6703 7.70911 16.0824 7.52972C16.16 7.49093 16.2473 7.44729 16.3297 7.45214Z" fill="#308CEF"/>
<path d="M17.3188 21.8134V21.8328C17.3188 22.3224 16.3733 22.72 15.2145 22.72C14.0509 22.72 13.1103 22.3224 13.1103 21.8328C13.1103 21.6534 13.2412 21.4837 13.4594 21.3431C13.8376 21.1006 14.4824 20.9455 15.2194 20.9455C16.3636 20.9406 17.2945 21.3285 17.3188 21.8134Z" fill="#FE7773"/>
<g opacity="0.5">
<path d="M17.3188 21.8133V21.8327C17.3188 22.3224 16.3733 22.72 15.2145 22.72C14.0509 22.72 13.1103 22.3224 13.1103 21.8327C13.1103 21.6533 13.2412 21.4836 13.4594 21.343C13.4885 21.4109 13.5321 21.4739 13.5758 21.5321C14.0073 22.0654 14.7442 22.2594 15.4327 22.2254C16.0727 22.1915 16.6933 21.9879 17.3188 21.8133Z" fill="#E55554"/>
</g>
<path d="M21.8618 21.8134V21.8328C21.8618 22.3224 22.8073 22.72 23.9661 22.72C25.1297 22.72 26.0703 22.3224 26.0703 21.8328C26.0703 21.6534 25.9394 21.4837 25.7212 21.3431C25.343 21.1006 24.6982 20.9455 23.9612 20.9455C22.817 20.9406 21.8861 21.3285 21.8618 21.8134Z" fill="#FE7773"/>
<g opacity="0.5">
<path d="M21.8618 21.8133V21.8327C21.8618 22.3224 22.8073 22.72 23.9661 22.72C25.1297 22.72 26.0703 22.3224 26.0703 21.8327C26.0703 21.6533 25.9394 21.4836 25.7212 21.343C25.6921 21.4109 25.6485 21.4739 25.6048 21.5321C25.1733 22.0654 24.4364 22.2594 23.7479 22.2254C23.1079 22.1915 22.4873 21.9879 21.8618 21.8133Z" fill="#E55554"/>
</g>
<path d="M23.423 23.9758V25.4304H20.5915C20.4655 25.3576 20.3394 25.2849 20.2036 25.1831C20.1164 25.1201 20.0242 25.0522 19.9321 24.9455C19.6121 24.6692 19.6461 24.2425 19.9321 24.0243C19.9467 24.0049 19.9612 23.9904 19.9758 23.9758H23.423Z" fill="#1B38AB"/>
<path d="M28.8194 25.0134H23.84C23.6703 25.0134 23.5297 24.8728 23.5297 24.7031C23.5297 24.5334 23.6703 24.3928 23.84 24.3928H28.8194C29.5806 24.3928 30.2012 23.7722 30.2012 23.011C30.2012 22.2498 29.5806 21.6292 28.8194 21.6292C28.4848 21.6292 28.2133 21.9007 28.2133 22.2352V22.3273C28.2133 22.7104 28.5285 23.0255 28.9115 23.0255H29.057C29.1685 23.0255 29.2606 22.9334 29.2606 22.8219C29.2606 22.7104 29.1685 22.6182 29.057 22.6182C28.8873 22.6182 28.7467 22.4776 28.7467 22.3079C28.7467 22.1382 28.8873 21.9976 29.057 21.9976C29.5127 21.9976 29.8812 22.3661 29.8812 22.8219C29.8812 23.2776 29.5127 23.6461 29.057 23.6461H28.9115C28.1842 23.6461 27.5927 23.0546 27.5927 22.3273V22.2352C27.5927 21.5613 28.1406 21.0085 28.8194 21.0085C29.9248 21.0085 30.8218 21.9055 30.8218 23.011C30.8218 24.1164 29.92 25.0134 28.8194 25.0134Z" fill="#1B38AB"/>
<path d="M24.257 23.9274V25.4886C24.257 25.6001 24.1649 25.6971 24.0485 25.6971H23.6315C23.52 25.6971 23.423 25.6001 23.423 25.4886V23.9274C23.423 23.8158 23.5152 23.7189 23.6315 23.7189H24.0485C24.16 23.7189 24.257 23.811 24.257 23.9274Z" fill="#FE7773"/>
<path d="M23.423 23.9758C23.423 23.9758 22.7345 25.4304 20.5915 25.4304H23.423V23.9758Z" fill="#142F84"/>
<path d="M9.01819 9.83761C8.90182 9.76973 9.05697 9.28973 9.30425 8.7273C9.55637 8.16973 9.82788 7.73821 9.95394 7.78185C10.08 7.82549 10.0024 8.34912 9.74061 8.92609C9.48849 9.50791 9.13455 9.90549 9.01819 9.83761Z" fill="white"/>
<path d="M8.45091 10.6618C8.40728 10.6182 8.47515 10.4824 8.58667 10.3273C8.69818 10.177 8.81455 10.0654 8.86788 10.0994C8.91637 10.1285 8.87758 10.2933 8.75637 10.4533C8.64 10.6133 8.4897 10.7006 8.45091 10.6618Z" fill="white"/>
<path d="M28.9067 18.114L26.817 13.2316C26.817 13.2267 28.6642 15.171 28.9067 18.114Z" fill="white"/>
</svg>
