<svg width="32" height="32" viewBox="0 0 32 32" fill="none" xmlns="http://www.w3.org/2000/svg">
<g clip-path="url(#clip0_176_812)">
<path d="M32 16C32 17.9406 31.6544 19.8 31.0212 21.5212C30.3675 23.3 24.6225 20.8406 23.4194 22.2588C23.1269 22.6031 22.8206 22.935 22.5 23.2531C21.6119 24.1375 25.4044 29.0069 24.3288 29.6637C21.9025 31.1456 19.0513 32 16 32C12 32 8.34313 30.5319 5.53813 28.1056C5.02187 27.6594 4.53438 27.18 4.07875 26.6719C1.54313 23.8406 0 20.1006 0 16C0 7.16375 7.16375 0 16 0C24.8363 0 32 7.16375 32 16Z" fill="#31446C"/>
<path d="M11.5197 0.868591H8.23268C7.46637 0.868591 6.81368 1.46453 6.78643 2.23034C6.75787 3.0344 7.40118 3.69515 8.19881 3.69515H5.5385C4.75793 3.69515 4.12518 4.3279 4.12518 5.10847C4.12518 5.88903 4.75793 6.52178 5.5385 6.52178H1.71425C0.933684 6.52178 0.300934 7.15453 0.300934 7.93509C0.300934 8.71565 0.933684 9.3484 1.71425 9.3484H5.53831C4.74075 9.34847 4.0975 10.0093 4.12606 10.8133C4.15331 11.5792 4.806 12.175 5.57231 12.175H8.19875C7.41818 12.175 6.78543 12.8078 6.78543 13.5883C6.78543 14.3689 7.41818 15.0017 8.19875 15.0017H11.5196C14.1852 15.0017 16.346 12.8408 16.346 10.1753V5.69497C16.3461 3.0294 14.1852 0.868591 11.5197 0.868591Z" fill="#DA4A54"/>
<path d="M14.8637 7.60882C14.8637 5.44732 13.1114 3.69513 10.95 3.69513H8.90149C8.12093 3.69513 7.48818 4.32788 7.48818 5.10844C7.48818 5.889 8.12093 6.52175 8.90149 6.52175H7.17662C6.39606 6.52175 5.76331 7.1545 5.76331 7.93507C5.76331 8.71563 6.39606 9.34838 7.17662 9.34838H8.90131C8.10374 9.34844 7.46049 10.0093 7.48906 10.8133C7.51631 11.5791 8.16899 12.175 8.93531 12.175H10.95C13.1115 12.175 14.8637 10.4228 14.8637 8.26132V7.60882Z" fill="#FFC250"/>
<path d="M17.185 15.9208H13.6265C12.7969 15.9208 12.0903 16.5659 12.0609 17.395C12.0299 18.2655 12.7264 18.9808 13.5899 18.9808H10.7099C9.86486 18.9808 9.1798 19.6659 9.1798 20.5109C9.1798 21.3559 9.8648 22.041 10.7099 22.041H6.56974C5.72474 22.041 5.03967 22.726 5.03967 23.571C5.03967 24.416 5.72467 25.1011 6.56974 25.1011H10.7097C9.84617 25.1012 9.14986 25.8165 9.1808 26.687C9.2103 27.5161 9.91686 28.1612 10.7465 28.1612H13.5899C12.7449 28.1612 12.0599 28.8462 12.0599 29.6913C12.0599 30.5363 12.7449 31.2213 13.5899 31.2213H17.1851C20.0708 31.2213 22.4102 28.882 22.4102 25.9963V21.146C22.4101 18.2602 20.0708 15.9208 17.185 15.9208Z" fill="#DA4A54"/>
<path d="M20.8053 23.2178C20.8053 20.8778 18.9084 18.9809 16.5684 18.9809H14.3506C13.5056 18.9809 12.8206 19.666 12.8206 20.511C12.8206 21.356 13.5056 22.041 14.3506 22.041H12.4833C11.6383 22.041 10.9532 22.7261 10.9532 23.5711C10.9532 24.4161 11.6382 25.1011 12.4833 25.1011H14.3505C13.487 25.1013 12.7907 25.8166 12.8216 26.687C12.8511 27.5161 13.5577 28.1613 14.3873 28.1613H16.5684C18.9084 28.1613 20.8053 26.2643 20.8053 23.9243V23.2178Z" fill="#FFC250"/>
<path d="M31.0213 19.3681V21.5212C29.7681 24.9312 27.3863 27.7962 24.3288 29.6637H16.7113C16.5894 29.6637 16.4719 29.6487 16.3588 29.6206C15.8894 29.5018 15.5106 29.1537 15.3525 28.7012C15.2988 28.5518 15.2706 28.3906 15.2706 28.2231V19.3681C15.2706 19.2006 15.2988 19.04 15.3519 18.8906C15.5106 18.4387 15.8894 18.0893 16.3594 17.9718C16.4719 17.9431 16.59 17.9281 16.7113 17.9281H29.5806C29.7019 17.9281 29.82 17.9431 29.9325 17.9718C30.4025 18.0893 30.7813 18.4387 30.94 18.8906C30.9925 19.04 31.0213 19.2006 31.0213 19.3681Z" fill="#F9F6F9"/>
<path d="M17.7532 29.6203C17.8662 29.6488 17.9839 29.6637 18.1057 29.6637H16.7112C16.5894 29.6637 16.4717 29.6488 16.3586 29.6203C15.8891 29.5019 15.5108 29.1535 15.3525 28.7015C15.2991 28.5519 15.2706 28.3909 15.2706 28.2231V19.3681C15.2706 19.2003 15.2991 19.0399 15.3518 18.8904C15.5108 18.4384 15.8891 18.0893 16.3593 17.9715C16.4716 17.9431 16.5901 17.9282 16.7111 17.9282H18.1056C17.9845 17.9282 17.8661 17.9431 17.7538 17.9715C17.2836 18.0893 16.9053 18.4384 16.7463 18.8904C16.6936 19.04 16.6651 19.2003 16.6651 19.3681V28.2231C16.6651 28.3909 16.6936 28.5519 16.747 28.7015C16.9054 29.1535 17.2836 29.5019 17.7532 29.6203Z" fill="#DDDAEC"/>
<path d="M25.2369 23.7962L28.2037 26.3481C27.9112 26.6925 27.605 27.0244 27.2844 27.3425L24.1325 24.6306C23.8194 24.7775 23.4831 24.8506 23.1456 24.8506C22.8087 24.8506 22.4719 24.7775 22.1594 24.6306L16.3587 29.6206C15.8894 29.5019 15.5106 29.1537 15.3525 28.7012L21.055 23.7963L15.3519 18.8907C15.5106 18.4388 15.8894 18.0894 16.3594 17.9719L22.5 23.2532C22.8737 23.5763 23.4181 23.5757 23.7919 23.2532L29.9325 17.9719C30.4025 18.0894 30.7812 18.4388 30.94 18.8907L25.2369 23.7962Z" fill="#DDDAEC"/>
<path d="M5.0085 15.0431H2.63912C2.24312 15.0431 1.92206 14.7221 1.92206 14.3261C1.92206 13.9301 2.24306 13.609 2.63912 13.609H5.0085C5.4045 13.609 5.72556 13.93 5.72556 14.3261C5.72556 14.7221 5.4045 15.0431 5.0085 15.0431Z" fill="#3F5882"/>
<path d="M9.22763 17.7554H4.43694C4.04094 17.7554 3.71988 17.4344 3.71988 17.0384C3.71988 16.6424 4.04088 16.3213 4.43694 16.3213H9.22763C9.62363 16.3213 9.94469 16.6423 9.94469 17.0384C9.94463 17.4344 9.62363 17.7554 9.22763 17.7554Z" fill="#3F5882"/>
<path d="M7.96373 27.3888C7.96373 27.5869 7.88373 27.7662 7.75373 27.8956C7.62436 28.0256 7.44498 28.1056 7.24686 28.1056H5.53811C5.02186 27.6594 4.53436 27.18 4.07874 26.6719H7.24686C7.64311 26.6719 7.96373 26.9925 7.96373 27.3888Z" fill="#3F5882"/>
<path d="M22.4841 2.74933H11.536C10.5331 2.74933 9.72006 3.56233 9.72006 4.56527V11.6118C9.72006 12.6147 10.5331 13.4277 11.536 13.4277H22.4841C23.4871 13.4277 24.3001 12.6147 24.3001 11.6118V4.56527C24.3001 3.56233 23.4871 2.74933 22.4841 2.74933Z" fill="#FFC250"/>
<path d="M13.3245 13.4273H11.5361C10.5329 13.4273 9.72006 12.6145 9.72006 11.6113V4.56527C9.72006 3.56214 10.5329 2.74927 11.5361 2.74927H13.3245C12.3214 2.74927 11.5085 3.56208 11.5085 4.56527V11.6113C11.5085 12.6145 12.3213 13.4273 13.3245 13.4273Z" fill="#EBB044"/>
<path d="M14.0877 2.74933V7.45764C14.0877 7.99564 14.5238 8.43177 15.0618 8.43177C15.5998 8.43177 16.0359 7.99564 16.0359 7.45764C16.0359 7.99564 16.4721 8.43177 17.0101 8.43177C17.5481 8.43177 17.9842 7.99564 17.9842 7.45764C17.9842 7.99564 18.4203 8.43177 18.9583 8.43177C19.4963 8.43177 19.9324 7.99564 19.9324 7.45764V2.74933H14.0877Z" fill="#F9F6F9"/>
</g>
<defs>
<clipPath id="clip0_176_812">
<rect width="32" height="32" fill="white"/>
</clipPath>
</defs>
</svg>
