<svg width="32" height="32" viewBox="0 0 32 32" fill="none" xmlns="http://www.w3.org/2000/svg">
<g clip-path="url(#clip0_179_1773)">
<mask id="mask0_179_1773" style="mask-type:luminance" maskUnits="userSpaceOnUse" x="0" y="0" width="32" height="32">
<path d="M0 1.90735e-06H32V32H0V1.90735e-06Z" fill="white"/>
</mask>
<g mask="url(#mask0_179_1773)">
<path d="M12.2407 7.70519C12.2407 10.7893 13.631 13.6483 16 16C18.369 13.6483 19.7594 10.7893 19.7594 7.70519C19.7594 5.05938 18.7362 2.57925 16.9495 0.442876C16.4557 -0.147625 15.5444 -0.147625 15.0505 0.442876C13.264 2.57925 12.2407 5.05938 12.2407 7.70519Z" fill="#2BCF69"/>
<path d="M24.2949 12.2406C21.2107 12.2406 18.3518 13.6309 16.0001 15.9999C18.3518 18.3689 21.2107 19.7593 24.2949 19.7593C26.9407 19.7593 29.4208 18.736 31.5572 16.9494C32.1477 16.4556 32.1477 15.5443 31.5572 15.0504C29.4208 13.2638 26.9407 12.2406 24.2949 12.2406Z" fill="#2BCF69"/>
<path d="M19.7594 24.2948C19.7594 21.2107 18.3691 18.3518 16 16C13.6311 18.3518 12.2407 21.2107 12.2407 24.2948C12.2407 26.9406 13.2639 29.4208 15.0506 31.5571C15.5444 32.1476 16.4557 32.1476 16.9496 31.5571C18.7361 29.4208 19.7594 26.9406 19.7594 24.2948Z" fill="#2BCF69"/>
<path d="M7.70522 19.7593C10.7893 19.7593 13.6483 18.369 16 16C13.6483 13.631 10.7893 12.2406 7.70522 12.2406C5.0594 12.2406 2.57928 13.2638 0.442905 15.0505C-0.147594 15.5443 -0.147594 16.4556 0.442905 16.9495C2.57928 18.736 5.0594 19.7593 7.70522 19.7593Z" fill="#2BCF69"/>
<path d="M16 28.1368V20.786V11.2193V3.86322" stroke="#00B472" stroke-width="20" stroke-miterlimit="10" stroke-linecap="round" stroke-linejoin="round"/>
<path d="M3.86319 16H11.2958H20.7029H28.1368" stroke="#00B472" stroke-width="20" stroke-miterlimit="10" stroke-linecap="round" stroke-linejoin="round"/>
<path d="M29.58 19.9573C26.8031 17.7204 23.3676 16.5813 20.572 15.9996C23.3677 15.4184 26.8035 14.2801 29.5809 12.0439C31.7868 10.2679 32.9555 7.30332 31.0195 5.36676C30.102 4.44895 28.3865 4.55045 27.2043 4.79682C27.451 3.61457 27.5528 1.89888 26.6353 0.981134C24.6995 -0.955429 21.7348 0.212635 19.9585 2.41832C17.7218 5.19545 16.5817 8.63126 16 11.4271C15.4183 8.63126 14.2783 5.19545 12.0416 2.41832C10.2653 0.212635 7.30059 -0.955429 5.36471 0.981134C4.44721 1.89888 4.54909 3.61457 4.79571 4.79682C3.61352 4.55045 1.89802 4.44895 0.98046 5.36676C-0.955414 7.30332 0.213274 10.2679 2.41915 12.0439C5.19659 14.2801 8.63227 15.4184 11.428 15.9996C8.6324 16.5813 5.19696 17.7204 2.42009 19.9573C0.214648 21.7338 -0.953351 24.6988 0.983024 26.6348C1.90071 27.5524 3.61621 27.4505 4.79834 27.2038C4.55202 28.3861 4.45052 30.1018 5.36827 31.0194C7.30459 32.9555 10.269 31.7867 12.0448 29.5806C14.2808 26.8029 15.419 23.3669 16 20.5709C16.581 23.3669 17.7192 26.8029 19.9552 29.5806C21.731 31.7867 24.6954 32.9555 26.6318 31.0194C27.5495 30.1018 27.448 28.3861 27.2017 27.2038C28.3838 27.4505 30.0993 27.5524 31.017 26.6348C32.9533 24.6988 31.7854 21.7338 29.58 19.9573Z" fill="#FFA2AD"/>
<path d="M2.41913 12.0439C4.59351 13.7946 7.17132 14.8723 9.52969 15.5366C8.40394 13.3467 7.76826 10.8634 7.76826 8.23168C7.76826 5.43781 8.48507 2.81162 9.74376 0.52581C8.24869 -0.226065 6.59794 -0.252565 5.36469 0.98106C4.44719 1.89887 4.54907 3.61456 4.79569 4.79681C3.61351 4.55043 1.89801 4.44893 0.980506 5.36675C-0.955431 7.30331 0.213256 10.2679 2.41913 12.0439Z" fill="#FF92A4"/>
<path d="M23.7683 24.2317C21.1364 24.2317 18.6531 23.596 16.4631 22.4702C17.1274 24.8285 18.2049 27.4063 19.9552 29.5807C21.731 31.7867 24.6954 32.9555 26.6318 31.0194C27.5495 30.1019 27.448 28.3861 27.2016 27.2039C28.3838 27.4505 30.0993 27.5524 31.017 26.6348C32.2501 25.4019 32.224 23.7517 31.473 22.2569C29.1874 23.5152 26.5617 24.2317 23.7683 24.2317Z" fill="#FF92A4"/>
<path d="M9.9745 16.3417C7.49925 16.9941 4.73162 18.095 2.42006 19.957C0.214623 21.7335 -0.953315 24.6985 0.982998 26.6346C1.90075 27.5521 3.61625 27.4503 4.79837 27.2036C4.552 28.3859 4.4505 30.1016 5.36825 31.0192C7.30462 32.9553 10.269 31.7865 12.0448 29.5804C13.9059 27.2684 15.0061 24.5006 15.6578 22.0251C13.315 20.6446 11.355 18.6846 9.9745 16.3417Z" fill="#FF92A4"/>
<path d="M7.09323 7.09325C6.18061 8.00588 6.49211 9.79713 8.26042 11.5654C11.9786 15.2837 16 16 16 16C16 16 15.2837 11.9786 11.5654 8.26044C9.79711 6.49213 8.00586 6.18063 7.09323 7.09325Z" fill="#FF7591"/>
<path d="M7.76829 8.23172C7.76829 7.70253 7.7941 7.17934 7.84435 6.66341C7.55554 6.74141 7.30135 6.88509 7.09323 7.09322C6.2131 7.97334 6.47198 9.67059 8.07748 11.3763C7.87473 10.3596 7.76829 9.30809 7.76829 8.23172Z" fill="#F26486"/>
<path d="M24.9067 7.09325C23.9941 6.18063 22.2029 6.49213 20.4346 8.26044C16.7163 11.9786 16 16 16 16C16 16 20.0213 15.2837 23.7396 11.5654C25.5079 9.79713 25.8194 8.00588 24.9067 7.09325Z" fill="#FF7591"/>
<path d="M24.9067 24.9068C25.8194 23.9942 25.5079 22.2029 23.7396 20.4346C20.0213 16.7164 16 16.0001 16 16.0001C16 16.0001 16.7163 20.0214 20.4346 23.7396C22.2029 25.5079 23.9941 25.8194 24.9067 24.9068Z" fill="#FF7591"/>
<path d="M24.9068 24.9067C25.1149 24.6986 25.2586 24.4444 25.3366 24.1556C24.8206 24.2058 24.2975 24.2316 23.7683 24.2316C22.6919 24.2316 21.6404 24.1252 20.6237 23.9225C22.3294 25.528 24.0267 25.7868 24.9068 24.9067Z" fill="#F26486"/>
<path d="M7.09323 24.9068C8.00586 25.8194 9.79711 25.5079 11.5654 23.7396C15.2837 20.0214 16 16.0001 16 16.0001C16 16.0001 11.9786 16.7164 8.26042 20.4346C6.49211 22.2029 6.18061 23.9942 7.09323 24.9068Z" fill="#FF7591"/>
<path d="M11.5654 23.7396C12.5396 22.7654 13.3074 21.7705 13.9106 20.8324C12.8892 20.0323 11.9677 19.1108 11.1676 18.0894C10.2295 18.6926 9.2346 19.4604 8.26042 20.4346C6.4921 22.2029 6.18054 23.9941 7.09323 24.9068C8.00585 25.8194 9.7971 25.5079 11.5654 23.7396Z" fill="#F26486"/>
<path d="M18.5755 16C18.5755 17.4224 17.4224 18.5754 16.0001 18.5754C14.5777 18.5754 13.4246 17.4224 13.4246 16C13.4246 14.5776 14.5777 13.4246 16.0001 13.4246C17.4224 13.4246 18.5755 14.5776 18.5755 16Z" fill="#F9EF80"/>
<path d="M16 16C16 15.0469 16.5181 14.2153 17.2877 13.7699C16.9088 13.5507 16.4692 13.4246 16 13.4246C14.5776 13.4246 13.4246 14.5776 13.4246 16C13.4246 17.4224 14.5776 18.5754 16 18.5754C16.4692 18.5754 16.9088 18.4493 17.2877 18.2301C16.5181 17.7847 16 16.9531 16 16Z" fill="#F9D171"/>
</g>
<mask id="mask1_179_1773" style="mask-type:luminance" maskUnits="userSpaceOnUse" x="0" y="0" width="32" height="32">
<path d="M0 1.90735e-06H32V32H0V1.90735e-06Z" fill="white"/>
</mask>
<g mask="url(#mask1_179_1773)">
<path d="M-6.48441 1.52432C0.479214 8.48794 0.494778 19.7685 -6.43772 26.7514C-13.3885 33.7527 -24.8803 33.6763 -31.8564 26.7002L-32.8665 25.6901C-33.3778 25.1787 -33.3778 24.3495 -32.8665 23.8381L-9.44453 0.416193C-8.9331 -0.0952454 -8.10397 -0.0952454 -7.59254 0.416193L-6.48441 1.52432Z" fill="#2BCF69"/>
</g>
</g>
<defs>
<clipPath id="clip0_179_1773">
<rect width="32" height="32" fill="white"/>
</clipPath>
</defs>
</svg>
