<svg width="25" height="30" viewBox="0 0 25 30" fill="none" xmlns="http://www.w3.org/2000/svg">
<path d="M22.8333 12.1667C22.8333 20.8333 12.1667 28.1667 12.1667 28.1667C12.1667 28.1667 1.5 20.8333 1.5 12.1667C1.5 9.33769 2.62381 6.62458 4.62419 4.62419C6.62458 2.62381 9.33769 1.5 12.1667 1.5C14.9956 1.5 17.7088 2.62381 19.7091 4.62419C21.7095 6.62458 22.8333 9.33769 22.8333 12.1667Z" stroke="#FE564B" stroke-width="3"/>
<path d="M16.1666 12.1666C16.1666 13.2275 15.7452 14.2449 14.9951 14.9951C14.2449 15.7452 13.2275 16.1666 12.1666 16.1666C11.1058 16.1666 10.0883 15.7452 9.3382 14.9951C8.58805 14.2449 8.16663 13.2275 8.16663 12.1666C8.16663 11.1058 8.58805 10.0883 9.3382 9.3382C10.0883 8.58805 11.1058 8.16663 12.1666 8.16663C13.2275 8.16663 14.2449 8.58805 14.9951 9.3382C15.7452 10.0883 16.1666 11.1058 16.1666 12.1666Z" stroke="#FE564B" stroke-width="3"/>
</svg>
