<svg width="32" height="32" viewBox="0 0 32 32" fill="none" xmlns="http://www.w3.org/2000/svg">
<path d="M15.7538 31.5077C24.4545 31.5077 31.5077 24.4545 31.5077 15.7538C31.5077 7.05324 24.4545 0 15.7538 0C7.05324 0 0 7.05324 0 15.7538C0 24.4545 7.05324 31.5077 15.7538 31.5077Z" fill="#EFEFEF"/>
<path d="M5.41539 6.74463H26.0923V21.5631H5.41539V6.74463Z" fill="#E95C60"/>
<path d="M14.2769 22.0554H4.92308V6.25232H26.5846V14.7692H25.6V7.23693H5.9077V21.0708H14.2769V22.0554Z" fill="black"/>
<path d="M26.0923 6.74463L15.7539 15.36L5.41539 6.74463H26.0923Z" fill="#76BFE9"/>
<path d="M15.7538 15.8523C15.6554 15.8523 15.5077 15.8031 15.4585 15.7539L5.12 7.13847C4.97231 6.99078 4.92308 6.79386 4.97231 6.59693C5.02154 6.40001 5.21847 6.25232 5.41539 6.25232H26.0923C26.2892 6.25232 26.4862 6.40001 26.5354 6.59693C26.5846 6.79386 26.5354 6.99078 26.3877 7.13847L16.0492 15.7539C16 15.8031 15.8523 15.8523 15.7538 15.8523ZM6.79385 7.23693L15.7538 14.72L24.7139 7.23693H6.79385Z" fill="black"/>
<path d="M5.04684 21.2201L12.8249 12.8595L13.5457 13.53L5.76758 21.8906L5.04684 21.2201Z" fill="black"/>
<path d="M17.9488 13.5261L18.6695 12.8555L20.9157 15.27L20.195 15.9405L17.9488 13.5261Z" fill="black"/>
<path d="M25.8954 17.92L23.9754 16C23.7292 15.7538 23.3354 15.7538 23.0892 16L21.5139 17.5754L24.32 20.3815L25.8954 18.8061C26.1415 18.56 26.1415 18.1661 25.8954 17.92Z" fill="#76BFE9"/>
<path d="M24.32 20.8738C24.1723 20.8738 24.0739 20.8246 23.9754 20.7261L21.1692 17.92C21.0708 17.8215 21.0215 17.7231 21.0215 17.5754C21.0215 17.4277 21.0708 17.3292 21.1692 17.2308L22.7446 15.6554C23.1877 15.2123 23.8769 15.2123 24.32 15.6554L26.24 17.5754C26.4369 17.7723 26.5846 18.0677 26.5846 18.3631C26.5846 18.6584 26.4862 18.9538 26.24 19.1508L24.6646 20.7261C24.6154 20.8246 24.4677 20.8738 24.32 20.8738ZM22.2031 17.5754L24.32 19.6923L25.5508 18.4615C25.6 18.4123 25.6 18.4123 25.6 18.3631C25.6 18.3138 25.6 18.3138 25.5508 18.2646L23.6308 16.3446C23.5815 16.2954 23.4831 16.2954 23.4339 16.3446L22.2031 17.5754Z" fill="black"/>
<path d="M15.0646 24.0246L14.4739 27.4215L17.8708 26.8308L24.32 20.3815L21.5139 17.5754L15.0646 24.0246Z" fill="#FCD66F"/>
<path d="M14.4739 27.9138C14.3262 27.9138 14.2277 27.8646 14.1292 27.7661C14.0308 27.6677 13.9815 27.4708 13.9815 27.3231L14.5723 23.9261C14.5723 23.8277 14.6215 23.7292 14.72 23.68L21.1692 17.2308C21.3662 17.0338 21.6615 17.0338 21.8585 17.2308L24.6646 20.0369C24.7631 20.1354 24.8123 20.2338 24.8123 20.3815C24.8123 20.5292 24.7631 20.6277 24.6646 20.7261L18.2154 27.1754C18.1662 27.2738 18.0677 27.3231 17.9692 27.3231L14.5723 27.9138C14.5231 27.9138 14.5231 27.9138 14.4739 27.9138ZM15.5077 24.2708L15.0646 26.8308L17.6246 26.3877L23.6308 20.3815L21.5139 18.2646L15.5077 24.2708Z" fill="black"/>
</svg>
