<svg width="32" height="32" viewBox="0 0 32 32" fill="none" xmlns="http://www.w3.org/2000/svg">
<path d="M16 32C24.8366 32 32 24.8366 32 16C32 7.16344 24.8366 0 16 0C7.16344 0 0 7.16344 0 16C0 24.8366 7.16344 32 16 32Z" fill="url(#paint0_linear_179_1752)"/>
<path d="M32 16C32 24.8362 24.8363 32 16 32C15.9431 32 15.8856 32 15.8287 32L6.73063 22.9006L6.3125 21.9375V10.0625L6.7025 9.01184L7.92812 8.44934H24.0719L25.1056 8.92559L32 15.8125V16Z" fill="url(#paint1_linear_179_1752)"/>
<path d="M24.0719 8.44629H7.92812C7.03584 8.44629 6.3125 9.16963 6.3125 10.0619V21.9382C6.3125 22.8305 7.03584 23.5538 7.92812 23.5538H24.0719C24.9642 23.5538 25.6875 22.8305 25.6875 21.9382V10.0619C25.6875 9.16963 24.9642 8.44629 24.0719 8.44629Z" fill="url(#paint2_linear_179_1752)"/>
<path d="M10.7994 14.1681C10.4371 14.1682 10.083 14.2758 9.78183 14.4771C9.48066 14.6785 9.24596 14.9646 9.1074 15.2994C8.96885 15.6341 8.93266 16.0024 9.00342 16.3577C9.07417 16.713 9.24869 17.0394 9.50491 17.2955C9.76112 17.5516 10.0875 17.7261 10.4429 17.7967C10.7982 17.8673 11.1665 17.831 11.5012 17.6923C11.8359 17.5537 12.1219 17.3189 12.3232 17.0176C12.5245 16.7164 12.6319 16.3622 12.6319 16C12.6312 15.5142 12.4379 15.0486 12.0944 14.7051C11.7509 14.3617 11.2851 14.1686 10.7994 14.1681ZM10.7994 16.8818C10.625 16.8818 10.4545 16.8301 10.3094 16.7332C10.1644 16.6363 10.0514 16.4986 9.98464 16.3374C9.9179 16.1763 9.90043 15.999 9.93446 15.8279C9.96849 15.6569 10.0525 15.4997 10.1758 15.3764C10.2991 15.2531 10.4563 15.1691 10.6273 15.135C10.7984 15.101 10.9757 15.1185 11.1369 15.1852C11.298 15.252 11.4357 15.365 11.5326 15.51C11.6295 15.655 11.6813 15.8255 11.6813 16C11.6809 16.2338 11.5879 16.4579 11.4226 16.6232C11.2573 16.7885 11.0332 16.8815 10.7994 16.8818Z" fill="url(#paint3_linear_179_1752)"/>
<path d="M15.9606 14.1681C15.5984 14.1682 15.2442 14.2758 14.9431 14.4771C14.6419 14.6785 14.4072 14.9646 14.2687 15.2994C14.1301 15.6341 14.0939 16.0024 14.1647 16.3577C14.2354 16.713 14.4099 17.0394 14.6662 17.2955C14.9224 17.5516 15.2488 17.7261 15.6041 17.7967C15.9595 17.8673 16.3277 17.831 16.6624 17.6923C16.9971 17.5537 17.2832 17.3189 17.4845 17.0176C17.6857 16.7164 17.7931 16.3622 17.7931 16C17.7925 15.5142 17.5992 15.0486 17.2556 14.7051C16.9121 14.3617 16.4464 14.1686 15.9606 14.1681ZM15.9606 16.8818C15.7862 16.8818 15.6157 16.8301 15.4707 16.7332C15.3257 16.6363 15.2126 16.4986 15.1459 16.3374C15.0792 16.1763 15.0617 15.999 15.0957 15.8279C15.1297 15.6569 15.2137 15.4997 15.3371 15.3764C15.4604 15.2531 15.6175 15.1691 15.7886 15.135C15.9597 15.101 16.137 15.1185 16.2981 15.1852C16.4593 15.252 16.597 15.365 16.6939 15.51C16.7908 15.655 16.8425 15.8255 16.8425 16C16.8422 16.2338 16.7492 16.4579 16.5839 16.6232C16.4185 16.7885 16.1944 16.8815 15.9606 16.8818Z" fill="url(#paint4_linear_179_1752)"/>
<path d="M21.125 14.1681C20.7626 14.1676 20.4082 14.2746 20.1066 14.4756C19.805 14.6766 19.5698 14.9625 19.4308 15.2972C19.2918 15.6319 19.2551 16.0003 19.3255 16.3558C19.3959 16.7113 19.5702 17.038 19.8263 17.2944C20.0824 17.5509 20.4088 17.7256 20.7642 17.7965C21.1196 17.8673 21.4881 17.8312 21.823 17.6926C22.1579 17.5541 22.4441 17.3193 22.6455 17.018C22.8469 16.7167 22.9544 16.3624 22.9544 16C22.9537 15.5148 22.7609 15.0496 22.418 14.7062C22.0752 14.3629 21.6102 14.1694 21.125 14.1681ZM21.125 16.8818C20.9505 16.8825 20.7797 16.8313 20.6342 16.7347C20.4888 16.6382 20.3753 16.5007 20.3081 16.3396C20.2408 16.1785 20.2229 16.0011 20.2566 15.8298C20.2903 15.6586 20.374 15.5011 20.4972 15.3775C20.6204 15.2539 20.7776 15.1696 20.9487 15.1353C21.1199 15.101 21.2973 15.1183 21.4587 15.1849C21.62 15.2516 21.7579 15.3646 21.8549 15.5097C21.952 15.6548 22.0038 15.8254 22.0038 16C22.0034 16.2332 21.9109 16.4569 21.7462 16.6221C21.5816 16.7873 21.3583 16.8807 21.125 16.8818Z" fill="url(#paint5_linear_179_1752)"/>
<defs>
<linearGradient id="paint0_linear_179_1752" x1="4.68625" y1="4.68625" x2="27.3137" y2="27.3137" gradientUnits="userSpaceOnUse">
<stop stop-color="#F8676E"/>
<stop offset="1" stop-color="#F2416D"/>
</linearGradient>
<linearGradient id="paint1_linear_179_1752" x1="7.86" y1="7.85309" x2="27.3169" y2="27.31" gradientUnits="userSpaceOnUse">
<stop stop-color="#B23245"/>
<stop offset="1" stop-color="#B23245" stop-opacity="0"/>
</linearGradient>
<linearGradient id="paint2_linear_179_1752" x1="6.3125" y1="16" x2="25.6875" y2="16" gradientUnits="userSpaceOnUse">
<stop stop-color="#FFCC78"/>
<stop offset="1" stop-color="#FEC35B"/>
</linearGradient>
<linearGradient id="paint3_linear_179_1752" x1="10.7994" y1="14.1681" x2="10.7994" y2="17.8318" gradientUnits="userSpaceOnUse">
<stop stop-color="#F8676E"/>
<stop offset="1" stop-color="#F2416D"/>
</linearGradient>
<linearGradient id="paint4_linear_179_1752" x1="15.9606" y1="14.1681" x2="15.9606" y2="17.8318" gradientUnits="userSpaceOnUse">
<stop stop-color="#F8676E"/>
<stop offset="1" stop-color="#F2416D"/>
</linearGradient>
<linearGradient id="paint5_linear_179_1752" x1="21.1219" y1="14.1681" x2="21.1219" y2="17.8318" gradientUnits="userSpaceOnUse">
<stop stop-color="#F8676E"/>
<stop offset="1" stop-color="#F2416D"/>
</linearGradient>
</defs>
</svg>
