<svg width="32" height="32" viewBox="0 0 32 32" fill="none" xmlns="http://www.w3.org/2000/svg">
<g clip-path="url(#clip0_179_1760)">
<path d="M12.0879 13.0254C6.4565 13.0254 1.875 8.44394 1.875 2.8125C1.875 2.29556 2.29556 1.875 2.8125 1.875C3.32944 1.875 3.75 2.29556 3.75 2.8125L5.625 3.75V2.8125C5.625 1.26169 4.36331 0 2.8125 0C1.26169 0 0 1.26169 0 2.8125C0 9.47781 5.42263 14.9004 12.0879 14.9004H16V13.0254H12.0879Z" fill="#EDCB4C"/>
<path d="M19.9121 13.0254C25.5435 13.0254 30.125 8.44394 30.125 2.8125C30.125 2.29556 29.7044 1.875 29.1875 1.875C28.6706 1.875 28.25 2.29556 28.25 2.8125L26.375 3.75V2.8125C26.375 1.26169 27.6367 0 29.1875 0C30.7383 0 32 1.26169 32 2.8125C32 9.47781 26.5774 14.9004 19.9121 14.9004H16V13.0254H19.9121Z" fill="#ECA647"/>
<path d="M21.9751 20.0498C19.7751 20.0498 17.9918 18.2663 17.9918 16.0664V12.0669H16L14.125 21.9248L21.9751 20.0498Z" fill="#EB5D3D"/>
<path d="M16 12.0669H14.0083V16.0664C14.0083 18.2664 12.2249 20.0498 10.025 20.0498L16.0001 21.9248V12.0669H16Z" fill="#EC8142"/>
<path d="M14.125 25.9082L25.0291 24.0332L23.0374 20.0498H16L14.125 25.9082Z" fill="#EC8142"/>
<path d="M16 20.0498H8.9627L6.97095 24.0332L16 25.9082V20.0498Z" fill="#ECA647"/>
<path d="M16 24.0332L14.125 28.0166L16 32H29.0124V24.0332H16Z" fill="#2C2C2F"/>
<path d="M2.98755 24.0332H16V32H2.98755V24.0332Z" fill="#424246"/>
<path d="M16 2.8125L15.0625 8.9375L16 15.0625C22.7655 15.0625 28.25 9.578 28.25 2.8125H16Z" fill="#EC8142"/>
<path d="M3.75 2.8125C3.75 9.578 9.2345 15.0625 16 15.0625V2.8125H3.75Z" fill="#ECA647"/>
</g>
<defs>
<clipPath id="clip0_179_1760">
<rect width="32" height="32" fill="white"/>
</clipPath>
</defs>
</svg>
