<svg width="32" height="32" viewBox="0 0 32 32" fill="none" xmlns="http://www.w3.org/2000/svg">
<path d="M24.895 19.285V25.755L19.4325 24.7525C18.4687 24.575 17.5975 24.0654 16.9704 23.3123C16.3434 22.5591 16 21.6101 16 20.63V6.39753C16.0027 5.98309 16.1613 5.58485 16.4443 5.28201C16.7272 4.97916 17.1138 4.79388 17.5271 4.76301C17.9404 4.73214 18.3501 4.85793 18.6749 5.11539C18.9997 5.37284 19.2157 5.74309 19.28 6.15253L20.975 17.355C21.0291 17.7178 21.1953 18.0546 21.4504 18.3182C21.7055 18.5818 22.0367 18.759 22.3975 18.825L24.895 19.285Z" fill="#F7B56D"/>
<path d="M18.8283 17.9262C18.7205 17.9261 18.6166 17.8863 18.5364 17.8143C18.4563 17.7424 18.4055 17.6433 18.3938 17.5362L17.9925 13.85C17.9547 13.4293 17.7861 13.0311 17.5106 12.711C17.235 12.3909 16.8661 12.1651 16.4558 12.0652L15.9058 11.9422C15.8495 11.93 15.7961 11.9067 15.7488 11.8738C15.7015 11.8408 15.6612 11.7988 15.6302 11.7503C15.5992 11.7017 15.578 11.6475 15.568 11.5907C15.558 11.534 15.5593 11.4758 15.5719 11.4195C15.5844 11.3633 15.608 11.31 15.6412 11.2629C15.6743 11.2158 15.7165 11.1757 15.7652 11.1449C15.814 11.1141 15.8683 11.0933 15.9251 11.0835C15.9819 11.0738 16.0401 11.0754 16.0963 11.0882L16.6463 11.2112C17.2349 11.3509 17.7652 11.6713 18.1625 12.1275C18.5599 12.5838 18.8045 13.153 18.862 13.7552L19.2635 17.4422C19.2696 17.4994 19.2644 17.5571 19.2482 17.6122C19.232 17.6673 19.205 17.7187 19.169 17.7634C19.1329 17.808 19.0884 17.8452 19.0379 17.8727C18.9875 17.9001 18.9321 17.9174 18.875 17.9235C18.8595 17.9254 18.8439 17.9263 18.8283 17.9262Z" fill="#894313"/>
<path d="M16 6.39753V20.63C16 21.6101 15.6566 22.5591 15.0295 23.3123C14.4025 24.0654 13.5313 24.575 12.5675 24.7525L7.10498 25.755V19.285L9.60248 18.825C9.96331 18.759 10.2945 18.5818 10.5495 18.3182C10.8046 18.0546 10.9709 17.7178 11.025 17.355L12.72 6.15253C12.7843 5.74309 13.0003 5.37284 13.3251 5.11539C13.6498 4.85793 14.0596 4.73214 14.4729 4.76301C14.8862 4.79388 15.2728 4.97916 15.5557 5.28201C15.8386 5.58485 15.9972 5.98309 16 6.39753Z" fill="#FCC581"/>
<path d="M13.1718 17.9263C13.1558 17.9264 13.1399 17.9255 13.124 17.9235C13.0669 17.9174 13.0116 17.9 12.9612 17.8725C12.9107 17.8449 12.8663 17.8077 12.8303 17.7629C12.7943 17.7181 12.7674 17.6667 12.7513 17.6116C12.7352 17.5564 12.7301 17.4987 12.7363 17.4415L13.1378 13.7545C13.1953 13.1523 13.4399 12.5831 13.8373 12.1269C14.2346 11.6706 14.7648 11.3502 15.3535 11.2105L15.9035 11.0875C16.0165 11.0629 16.1347 11.0841 16.2322 11.1463C16.3296 11.2086 16.3985 11.3069 16.4237 11.4198C16.4488 11.5326 16.4283 11.6509 16.3665 11.7487C16.3048 11.8465 16.2068 11.9158 16.094 11.9415L15.544 12.0645C15.1336 12.1645 14.7647 12.3905 14.4892 12.7107C14.2136 13.0309 14.0452 13.4293 14.0075 13.85L13.6063 17.5363C13.5946 17.6434 13.5438 17.7424 13.4636 17.8144C13.3834 17.8863 13.2795 17.9262 13.1718 17.9263Z" fill="#894313"/>
<path d="M4.75 17.8125H7.105V27.25H4.75V17.8125Z" fill="#FC6363"/>
<path d="M24.895 17.8125H27.25V27.25H24.895V17.8125Z" fill="#FC6363"/>
</svg>
