<svg width="42" height="44" viewBox="0 0 42 44" fill="none" xmlns="http://www.w3.org/2000/svg">
<path d="M31.1128 16.8758C33.2439 16.8758 34.9776 18.4978 34.9776 20.4916C34.9776 20.772 34.9442 21.0475 34.8792 21.3102L34.8629 21.3752C34.8629 21.3752 34.8629 21.3778 34.862 21.3795C34.7943 21.6329 34.6606 21.8661 34.4918 22.0739L32.9811 23.935L25.295 33.3943L23.0439 36.1661C22.4371 36.5234 21.7337 36.711 21.0005 36.711C20.2672 36.711 19.5322 36.5141 18.9128 36.139C18.8396 36.0951 18.7683 36.0486 18.6988 35.9996L16.9389 33.8336L8.48524 23.4298L7.46578 22.1753C7.32221 21.9218 7.21386 21.6549 7.14071 21.3795L7.13891 21.371L7.1371 21.3626C7.06577 21.0956 7.02784 20.8143 7.02513 20.5254C7.00707 18.6271 8.61256 17.0017 10.6379 16.8826C12.331 16.7829 13.8597 17.6944 14.481 19.1458L17.6874 26.6375C18.8848 29.4355 23.1179 29.4355 24.3153 26.6375L27.5217 19.1458C28.1123 17.7662 29.5218 16.875 31.1128 16.875M31.1128 10.3049C26.5303 10.3049 22.6059 12.9525 21.0005 16.7043C19.395 12.9534 15.4715 10.3049 10.8881 10.3049C4.87335 10.3049 0 14.8643 0 20.4916C0 21.3423 0.110163 22.1677 0.321458 22.9576C0.594156 23.9882 1.0339 24.9538 1.61361 25.8333L2.89313 27.408L11.3468 37.8109L13.5482 40.5202C14.0277 40.9434 14.5478 41.3244 15.1022 41.6598C16.7998 42.6871 18.8252 43.2827 20.9995 43.2827C23.1739 43.2827 25.3185 42.6525 27.0468 41.5677C27.4007 41.3473 27.7393 41.1056 28.0608 40.8497L30.8871 37.3708L38.5723 27.9123L40.753 25.2259C41.1828 24.4672 41.5106 23.6511 41.7219 22.7928V22.7911C41.9043 22.0536 42 21.2832 42 20.4924C42 14.8652 37.1267 10.3058 31.1119 10.3058L31.1128 10.3049ZM10.2144 0C7.89831 0 6.02103 1.75635 6.02103 3.92327C6.02103 6.09019 7.89831 7.84654 10.2144 7.84654C12.5306 7.84654 14.4078 6.09019 14.4078 3.92327C14.4078 1.75635 12.5306 0 10.2144 0ZM31.7865 0C29.4703 0 27.5931 1.75635 27.5931 3.92327C27.5931 6.09019 29.4703 7.84654 31.7865 7.84654C34.1026 7.84654 35.9799 6.09019 35.9799 3.92327C35.9799 1.75635 34.1026 0 31.7865 0Z" fill="#F1E7DB"/>
</svg>
